%TF.GenerationSoftware,KiCad,Pcbnew,9.0.0*%
%TF.CreationDate,2026-04-05T21:21:31+02:00*%
%TF.ProjectId,BARBIE_PCB,42415242-4945-45f5-9043-422e6b696361,rev?*%
%TF.SameCoordinates,Original*%
%TF.FileFunction,Copper,L2,Bot*%
%TF.FilePolarity,Positive*%
%FSLAX46Y46*%
G04 Gerber Fmt 4.6, Leading zero omitted, Abs format (unit mm)*
G04 Created by KiCad (PCBNEW 9.0.0) date 2026-04-05 21:21:31*
%MOMM*%
%LPD*%
G01*
G04 APERTURE LIST*
%TA.AperFunction,ComponentPad*%
%ADD10O,1.700000X1.700000*%
%TD*%
%TA.AperFunction,ComponentPad*%
%ADD11R,1.700000X1.700000*%
%TD*%
G04 APERTURE END LIST*
D10*
%TO.P,J6,12,Pin_12*%
%TO.N,Net-(J6-Pin_12)*%
X236500000Y-136840000D03*
%TO.P,J6,11,Pin_11*%
%TO.N,Net-(J6-Pin_11)*%
X236500000Y-134300000D03*
%TO.P,J6,10,Pin_10*%
%TO.N,Net-(J6-Pin_10)*%
X236500000Y-131760000D03*
%TO.P,J6,9,Pin_9*%
%TO.N,Net-(J6-Pin_9)*%
X236500000Y-129220000D03*
%TO.P,J6,8,Pin_8*%
%TO.N,Net-(J6-Pin_8)*%
X236500000Y-126680000D03*
%TO.P,J6,7,Pin_7*%
%TO.N,Net-(J6-Pin_7)*%
X236500000Y-124140000D03*
%TO.P,J6,6,Pin_6*%
%TO.N,Net-(J6-Pin_6)*%
X236500000Y-121600000D03*
%TO.P,J6,5,Pin_5*%
%TO.N,Net-(J6-Pin_5)*%
X236500000Y-119060000D03*
%TO.P,J6,4,Pin_4*%
%TO.N,Net-(J6-Pin_4)*%
X236500000Y-116520000D03*
%TO.P,J6,3,Pin_3*%
%TO.N,Net-(J6-Pin_3)*%
X236500000Y-113980000D03*
%TO.P,J6,2,Pin_2*%
%TO.N,Net-(J6-Pin_2)*%
X236500000Y-111440000D03*
D11*
%TO.P,J6,1,Pin_1*%
%TO.N,Net-(J6-Pin_1)*%
X236500000Y-108900000D03*
%TD*%
D10*
%TO.P,J7,12,Pin_12*%
%TO.N,Net-(J7-Pin_12)*%
X260000000Y-136840000D03*
%TO.P,J7,11,Pin_11*%
%TO.N,Net-(J7-Pin_11)*%
X260000000Y-134300000D03*
%TO.P,J7,10,Pin_10*%
%TO.N,Net-(J7-Pin_10)*%
X260000000Y-131760000D03*
%TO.P,J7,9,Pin_9*%
%TO.N,Net-(J7-Pin_9)*%
X260000000Y-129220000D03*
%TO.P,J7,8,Pin_8*%
%TO.N,Net-(J7-Pin_8)*%
X260000000Y-126680000D03*
%TO.P,J7,7,Pin_7*%
%TO.N,Net-(J7-Pin_7)*%
X260000000Y-124140000D03*
%TO.P,J7,6,Pin_6*%
%TO.N,Net-(J7-Pin_6)*%
X260000000Y-121600000D03*
%TO.P,J7,5,Pin_5*%
%TO.N,Net-(J7-Pin_5)*%
X260000000Y-119060000D03*
%TO.P,J7,4,Pin_4*%
%TO.N,Net-(J7-Pin_4)*%
X260000000Y-116520000D03*
%TO.P,J7,3,Pin_3*%
%TO.N,Net-(J7-Pin_3)*%
X260000000Y-113980000D03*
%TO.P,J7,2,Pin_2*%
%TO.N,Net-(J7-Pin_2)*%
X260000000Y-111440000D03*
D11*
%TO.P,J7,1,Pin_1*%
%TO.N,Net-(J7-Pin_1)*%
X260000000Y-108900000D03*
%TD*%
D10*
%TO.P,J3,7,Pin_7*%
%TO.N,Net-(J3-Pin_7)*%
X174690000Y-138725000D03*
%TO.P,J3,6,Pin_6*%
%TO.N,Net-(J3-Pin_6)*%
X172150000Y-138725000D03*
%TO.P,J3,5,Pin_5*%
%TO.N,Net-(J3-Pin_5)*%
X169610000Y-138725000D03*
%TO.P,J3,4,Pin_4*%
%TO.N,Net-(J3-Pin_4)*%
X167070000Y-138725000D03*
%TO.P,J3,3,Pin_3*%
%TO.N,Net-(J3-Pin_3)*%
X164530000Y-138725000D03*
%TO.P,J3,2,Pin_2*%
%TO.N,Net-(J3-Pin_2)*%
X161990000Y-138725000D03*
D11*
%TO.P,J3,1,Pin_1*%
%TO.N,Net-(J3-Pin_1)*%
X159450000Y-138725000D03*
%TD*%
%TO.P,J5,1,Pin_1*%
%TO.N,Net-(J5-Pin_1)*%
X159325000Y-107225000D03*
D10*
%TO.P,J5,2,Pin_2*%
%TO.N,Net-(J5-Pin_2)*%
X161865000Y-107225000D03*
%TO.P,J5,3,Pin_3*%
%TO.N,Net-(J5-Pin_3)*%
X164405000Y-107225000D03*
%TO.P,J5,4,Pin_4*%
%TO.N,Net-(J5-Pin_4)*%
X166945000Y-107225000D03*
%TO.P,J5,5,Pin_5*%
%TO.N,Net-(J5-Pin_5)*%
X169485000Y-107225000D03*
%TO.P,J5,6,Pin_6*%
%TO.N,Net-(J5-Pin_6)*%
X172025000Y-107225000D03*
%TO.P,J5,7,Pin_7*%
%TO.N,Net-(J5-Pin_7)*%
X174565000Y-107225000D03*
%TD*%
D11*
%TO.P,J4,1,Pin_1*%
%TO.N,Net-(J1-Pin_1)*%
X189122500Y-143942500D03*
D10*
%TO.P,J4,2,Pin_2*%
%TO.N,Net-(J4-Pin_2)*%
X191662500Y-143942500D03*
%TO.P,J4,3,Pin_3*%
%TO.N,Net-(J4-Pin_3)*%
X194202500Y-143942500D03*
%TO.P,J4,4,Pin_4*%
%TO.N,Net-(J4-Pin_4)*%
X196742500Y-143942500D03*
%TO.P,J4,5,Pin_5*%
%TO.N,Net-(J4-Pin_5)*%
X199282500Y-143942500D03*
%TO.P,J4,6,Pin_6*%
%TO.N,Net-(J4-Pin_6)*%
X201822500Y-143942500D03*
%TO.P,J4,7,Pin_7*%
%TO.N,Net-(J4-Pin_7)*%
X204362500Y-143942500D03*
%TO.P,J4,8,Pin_8*%
%TO.N,Net-(J4-Pin_8)*%
X206902500Y-143942500D03*
%TO.P,J4,9,Pin_9*%
%TO.N,Net-(J4-Pin_9)*%
X209442500Y-143942500D03*
%TO.P,J4,10,Pin_10*%
%TO.N,Net-(J4-Pin_10)*%
X211982500Y-143942500D03*
%TO.P,J4,11,Pin_11*%
%TO.N,Net-(J4-Pin_11)*%
X214522500Y-143942500D03*
%TO.P,J4,12,Pin_12*%
%TO.N,Net-(J4-Pin_12)*%
X217062500Y-143942500D03*
%TO.P,J4,13,Pin_13*%
%TO.N,Net-(J4-Pin_13)*%
X219602500Y-143942500D03*
%TO.P,J4,14,Pin_14*%
%TO.N,Net-(J4-Pin_14)*%
X222142500Y-143942500D03*
%TD*%
D11*
%TO.P,J2,1,Pin_1*%
%TO.N,Net-(J1-Pin_1)*%
X221862500Y-135102500D03*
D10*
%TO.P,J2,2,Pin_2*%
%TO.N,Net-(J2-Pin_2)*%
X221862500Y-132562500D03*
%TO.P,J2,3,Pin_3*%
%TO.N,unconnected-(J2-Pin_3-Pad3)*%
X221862500Y-130022500D03*
%TO.P,J2,4,Pin_4*%
%TO.N,unconnected-(J2-Pin_4-Pad4)*%
X221862500Y-127482500D03*
%TO.P,J2,5,Pin_5*%
%TO.N,unconnected-(J2-Pin_5-Pad5)*%
X221862500Y-124942500D03*
%TO.P,J2,6,Pin_6*%
%TO.N,unconnected-(J2-Pin_6-Pad6)*%
X221862500Y-122402500D03*
%TO.P,J2,7,Pin_7*%
%TO.N,unconnected-(J2-Pin_7-Pad7)*%
X221862500Y-119862500D03*
%TO.P,J2,8,Pin_8*%
%TO.N,unconnected-(J2-Pin_8-Pad8)*%
X221862500Y-117322500D03*
%TO.P,J2,9,Pin_9*%
%TO.N,Net-(J2-Pin_9)*%
X221862500Y-114782500D03*
%TO.P,J2,10,Pin_10*%
%TO.N,Net-(J2-Pin_10)*%
X221862500Y-112242500D03*
%TD*%
D11*
%TO.P,J1,1,Pin_1*%
%TO.N,Net-(J1-Pin_1)*%
X189042500Y-103942500D03*
D10*
%TO.P,J1,2,Pin_2*%
%TO.N,Net-(J1-Pin_2)*%
X191582500Y-103942500D03*
%TO.P,J1,3,Pin_3*%
%TO.N,Net-(J1-Pin_3)*%
X194122500Y-103942500D03*
%TO.P,J1,4,Pin_4*%
%TO.N,Net-(J1-Pin_4)*%
X196662500Y-103942500D03*
%TO.P,J1,5,Pin_5*%
%TO.N,Net-(J1-Pin_5)*%
X199202500Y-103942500D03*
%TO.P,J1,6,Pin_6*%
%TO.N,Net-(J1-Pin_6)*%
X201742500Y-103942500D03*
%TO.P,J1,7,Pin_7*%
%TO.N,unconnected-(J1-Pin_7-Pad7)*%
X204282500Y-103942500D03*
%TO.P,J1,8,Pin_8*%
%TO.N,Net-(J1-Pin_8)*%
X206822500Y-103942500D03*
%TO.P,J1,9,Pin_9*%
%TO.N,Net-(J1-Pin_9)*%
X209362500Y-103942500D03*
%TO.P,J1,10,Pin_10*%
%TO.N,Net-(J1-Pin_10)*%
X211902500Y-103942500D03*
%TO.P,J1,11,Pin_11*%
%TO.N,Net-(J1-Pin_11)*%
X214442500Y-103942500D03*
%TO.P,J1,12,Pin_12*%
%TO.N,Net-(J1-Pin_12)*%
X216982500Y-103942500D03*
%TO.P,J1,13,Pin_13*%
%TO.N,Net-(J1-Pin_13)*%
X219522500Y-103942500D03*
%TO.P,J1,14,Pin_14*%
%TO.N,Net-(J1-Pin_14)*%
X222062500Y-103942500D03*
%TD*%
%TA.AperFunction,NonConductor*%
G36*
X266442539Y-99020185D02*
G01*
X266488294Y-99072989D01*
X266499500Y-99124500D01*
X266499500Y-147875500D01*
X266479815Y-147942539D01*
X266427011Y-147988294D01*
X266375500Y-147999500D01*
X152624500Y-147999500D01*
X152557461Y-147979815D01*
X152511706Y-147927011D01*
X152500500Y-147875500D01*
X152500500Y-143044635D01*
X187772000Y-143044635D01*
X187772000Y-144840370D01*
X187772001Y-144840376D01*
X187778408Y-144899983D01*
X187828702Y-145034828D01*
X187828706Y-145034835D01*
X187914952Y-145150044D01*
X187914955Y-145150047D01*
X188030164Y-145236293D01*
X188030171Y-145236297D01*
X188165017Y-145286591D01*
X188165016Y-145286591D01*
X188171944Y-145287335D01*
X188224627Y-145293000D01*
X190020372Y-145292999D01*
X190079983Y-145286591D01*
X190214831Y-145236296D01*
X190330046Y-145150046D01*
X190416296Y-145034831D01*
X190465310Y-144903416D01*
X190507181Y-144847484D01*
X190572645Y-144823066D01*
X190640918Y-144837917D01*
X190669173Y-144859069D01*
X190782713Y-144972609D01*
X190954679Y-145097548D01*
X190954681Y-145097549D01*
X190954684Y-145097551D01*
X191144088Y-145194057D01*
X191346257Y-145259746D01*
X191556213Y-145293000D01*
X191556214Y-145293000D01*
X191768786Y-145293000D01*
X191768787Y-145293000D01*
X191978743Y-145259746D01*
X192180912Y-145194057D01*
X192370316Y-145097551D01*
X192456638Y-145034835D01*
X192542286Y-144972609D01*
X192542288Y-144972606D01*
X192542292Y-144972604D01*
X192692604Y-144822292D01*
X192692606Y-144822288D01*
X192692609Y-144822286D01*
X192817548Y-144650320D01*
X192817547Y-144650320D01*
X192817551Y-144650316D01*
X192822014Y-144641554D01*
X192869988Y-144590759D01*
X192937808Y-144573963D01*
X193003944Y-144596499D01*
X193042986Y-144641556D01*
X193047451Y-144650320D01*
X193172390Y-144822286D01*
X193322713Y-144972609D01*
X193494679Y-145097548D01*
X193494681Y-145097549D01*
X193494684Y-145097551D01*
X193684088Y-145194057D01*
X193886257Y-145259746D01*
X194096213Y-145293000D01*
X194096214Y-145293000D01*
X194308786Y-145293000D01*
X194308787Y-145293000D01*
X194518743Y-145259746D01*
X194720912Y-145194057D01*
X194910316Y-145097551D01*
X194996638Y-145034835D01*
X195082286Y-144972609D01*
X195082288Y-144972606D01*
X195082292Y-144972604D01*
X195232604Y-144822292D01*
X195232606Y-144822288D01*
X195232609Y-144822286D01*
X195357548Y-144650320D01*
X195357547Y-144650320D01*
X195357551Y-144650316D01*
X195362014Y-144641554D01*
X195409988Y-144590759D01*
X195477808Y-144573963D01*
X195543944Y-144596499D01*
X195582986Y-144641556D01*
X195587451Y-144650320D01*
X195712390Y-144822286D01*
X195862713Y-144972609D01*
X196034679Y-145097548D01*
X196034681Y-145097549D01*
X196034684Y-145097551D01*
X196224088Y-145194057D01*
X196426257Y-145259746D01*
X196636213Y-145293000D01*
X196636214Y-145293000D01*
X196848786Y-145293000D01*
X196848787Y-145293000D01*
X197058743Y-145259746D01*
X197260912Y-145194057D01*
X197450316Y-145097551D01*
X197536638Y-145034835D01*
X197622286Y-144972609D01*
X197622288Y-144972606D01*
X197622292Y-144972604D01*
X197772604Y-144822292D01*
X197772606Y-144822288D01*
X197772609Y-144822286D01*
X197897548Y-144650320D01*
X197897547Y-144650320D01*
X197897551Y-144650316D01*
X197902014Y-144641554D01*
X197949988Y-144590759D01*
X198017808Y-144573963D01*
X198083944Y-144596499D01*
X198122986Y-144641556D01*
X198127451Y-144650320D01*
X198252390Y-144822286D01*
X198402713Y-144972609D01*
X198574679Y-145097548D01*
X198574681Y-145097549D01*
X198574684Y-145097551D01*
X198764088Y-145194057D01*
X198966257Y-145259746D01*
X199176213Y-145293000D01*
X199176214Y-145293000D01*
X199388786Y-145293000D01*
X199388787Y-145293000D01*
X199598743Y-145259746D01*
X199800912Y-145194057D01*
X199990316Y-145097551D01*
X200076638Y-145034835D01*
X200162286Y-144972609D01*
X200162288Y-144972606D01*
X200162292Y-144972604D01*
X200312604Y-144822292D01*
X200312606Y-144822288D01*
X200312609Y-144822286D01*
X200437548Y-144650320D01*
X200437547Y-144650320D01*
X200437551Y-144650316D01*
X200442014Y-144641554D01*
X200489988Y-144590759D01*
X200557808Y-144573963D01*
X200623944Y-144596499D01*
X200662986Y-144641556D01*
X200667451Y-144650320D01*
X200792390Y-144822286D01*
X200942713Y-144972609D01*
X201114679Y-145097548D01*
X201114681Y-145097549D01*
X201114684Y-145097551D01*
X201304088Y-145194057D01*
X201506257Y-145259746D01*
X201716213Y-145293000D01*
X201716214Y-145293000D01*
X201928786Y-145293000D01*
X201928787Y-145293000D01*
X202138743Y-145259746D01*
X202340912Y-145194057D01*
X202530316Y-145097551D01*
X202616638Y-145034835D01*
X202702286Y-144972609D01*
X202702288Y-144972606D01*
X202702292Y-144972604D01*
X202852604Y-144822292D01*
X202852606Y-144822288D01*
X202852609Y-144822286D01*
X202977548Y-144650320D01*
X202977547Y-144650320D01*
X202977551Y-144650316D01*
X202982014Y-144641554D01*
X203029988Y-144590759D01*
X203097808Y-144573963D01*
X203163944Y-144596499D01*
X203202986Y-144641556D01*
X203207451Y-144650320D01*
X203332390Y-144822286D01*
X203482713Y-144972609D01*
X203654679Y-145097548D01*
X203654681Y-145097549D01*
X203654684Y-145097551D01*
X203844088Y-145194057D01*
X204046257Y-145259746D01*
X204256213Y-145293000D01*
X204256214Y-145293000D01*
X204468786Y-145293000D01*
X204468787Y-145293000D01*
X204678743Y-145259746D01*
X204880912Y-145194057D01*
X205070316Y-145097551D01*
X205156638Y-145034835D01*
X205242286Y-144972609D01*
X205242288Y-144972606D01*
X205242292Y-144972604D01*
X205392604Y-144822292D01*
X205392606Y-144822288D01*
X205392609Y-144822286D01*
X205517548Y-144650320D01*
X205517547Y-144650320D01*
X205517551Y-144650316D01*
X205522014Y-144641554D01*
X205569988Y-144590759D01*
X205637808Y-144573963D01*
X205703944Y-144596499D01*
X205742986Y-144641556D01*
X205747451Y-144650320D01*
X205872390Y-144822286D01*
X206022713Y-144972609D01*
X206194679Y-145097548D01*
X206194681Y-145097549D01*
X206194684Y-145097551D01*
X206384088Y-145194057D01*
X206586257Y-145259746D01*
X206796213Y-145293000D01*
X206796214Y-145293000D01*
X207008786Y-145293000D01*
X207008787Y-145293000D01*
X207218743Y-145259746D01*
X207420912Y-145194057D01*
X207610316Y-145097551D01*
X207696638Y-145034835D01*
X207782286Y-144972609D01*
X207782288Y-144972606D01*
X207782292Y-144972604D01*
X207932604Y-144822292D01*
X207932606Y-144822288D01*
X207932609Y-144822286D01*
X208057548Y-144650320D01*
X208057547Y-144650320D01*
X208057551Y-144650316D01*
X208062014Y-144641554D01*
X208109988Y-144590759D01*
X208177808Y-144573963D01*
X208243944Y-144596499D01*
X208282986Y-144641556D01*
X208287451Y-144650320D01*
X208412390Y-144822286D01*
X208562713Y-144972609D01*
X208734679Y-145097548D01*
X208734681Y-145097549D01*
X208734684Y-145097551D01*
X208924088Y-145194057D01*
X209126257Y-145259746D01*
X209336213Y-145293000D01*
X209336214Y-145293000D01*
X209548786Y-145293000D01*
X209548787Y-145293000D01*
X209758743Y-145259746D01*
X209960912Y-145194057D01*
X210150316Y-145097551D01*
X210236638Y-145034835D01*
X210322286Y-144972609D01*
X210322288Y-144972606D01*
X210322292Y-144972604D01*
X210472604Y-144822292D01*
X210472606Y-144822288D01*
X210472609Y-144822286D01*
X210597548Y-144650320D01*
X210597547Y-144650320D01*
X210597551Y-144650316D01*
X210602014Y-144641554D01*
X210649988Y-144590759D01*
X210717808Y-144573963D01*
X210783944Y-144596499D01*
X210822986Y-144641556D01*
X210827451Y-144650320D01*
X210952390Y-144822286D01*
X211102713Y-144972609D01*
X211274679Y-145097548D01*
X211274681Y-145097549D01*
X211274684Y-145097551D01*
X211464088Y-145194057D01*
X211666257Y-145259746D01*
X211876213Y-145293000D01*
X211876214Y-145293000D01*
X212088786Y-145293000D01*
X212088787Y-145293000D01*
X212298743Y-145259746D01*
X212500912Y-145194057D01*
X212690316Y-145097551D01*
X212776638Y-145034835D01*
X212862286Y-144972609D01*
X212862288Y-144972606D01*
X212862292Y-144972604D01*
X213012604Y-144822292D01*
X213012606Y-144822288D01*
X213012609Y-144822286D01*
X213137548Y-144650320D01*
X213137547Y-144650320D01*
X213137551Y-144650316D01*
X213142014Y-144641554D01*
X213189988Y-144590759D01*
X213257808Y-144573963D01*
X213323944Y-144596499D01*
X213362986Y-144641556D01*
X213367451Y-144650320D01*
X213492390Y-144822286D01*
X213642713Y-144972609D01*
X213814679Y-145097548D01*
X213814681Y-145097549D01*
X213814684Y-145097551D01*
X214004088Y-145194057D01*
X214206257Y-145259746D01*
X214416213Y-145293000D01*
X214416214Y-145293000D01*
X214628786Y-145293000D01*
X214628787Y-145293000D01*
X214838743Y-145259746D01*
X215040912Y-145194057D01*
X215230316Y-145097551D01*
X215316638Y-145034835D01*
X215402286Y-144972609D01*
X215402288Y-144972606D01*
X215402292Y-144972604D01*
X215552604Y-144822292D01*
X215552606Y-144822288D01*
X215552609Y-144822286D01*
X215677548Y-144650320D01*
X215677547Y-144650320D01*
X215677551Y-144650316D01*
X215682014Y-144641554D01*
X215729988Y-144590759D01*
X215797808Y-144573963D01*
X215863944Y-144596499D01*
X215902986Y-144641556D01*
X215907451Y-144650320D01*
X216032390Y-144822286D01*
X216182713Y-144972609D01*
X216354679Y-145097548D01*
X216354681Y-145097549D01*
X216354684Y-145097551D01*
X216544088Y-145194057D01*
X216746257Y-145259746D01*
X216956213Y-145293000D01*
X216956214Y-145293000D01*
X217168786Y-145293000D01*
X217168787Y-145293000D01*
X217378743Y-145259746D01*
X217580912Y-145194057D01*
X217770316Y-145097551D01*
X217856638Y-145034835D01*
X217942286Y-144972609D01*
X217942288Y-144972606D01*
X217942292Y-144972604D01*
X218092604Y-144822292D01*
X218092606Y-144822288D01*
X218092609Y-144822286D01*
X218217548Y-144650320D01*
X218217547Y-144650320D01*
X218217551Y-144650316D01*
X218222014Y-144641554D01*
X218269988Y-144590759D01*
X218337808Y-144573963D01*
X218403944Y-144596499D01*
X218442986Y-144641556D01*
X218447451Y-144650320D01*
X218572390Y-144822286D01*
X218722713Y-144972609D01*
X218894679Y-145097548D01*
X218894681Y-145097549D01*
X218894684Y-145097551D01*
X219084088Y-145194057D01*
X219286257Y-145259746D01*
X219496213Y-145293000D01*
X219496214Y-145293000D01*
X219708786Y-145293000D01*
X219708787Y-145293000D01*
X219918743Y-145259746D01*
X220120912Y-145194057D01*
X220310316Y-145097551D01*
X220396638Y-145034835D01*
X220482286Y-144972609D01*
X220482288Y-144972606D01*
X220482292Y-144972604D01*
X220632604Y-144822292D01*
X220632606Y-144822288D01*
X220632609Y-144822286D01*
X220757548Y-144650320D01*
X220757547Y-144650320D01*
X220757551Y-144650316D01*
X220762014Y-144641554D01*
X220809988Y-144590759D01*
X220877808Y-144573963D01*
X220943944Y-144596499D01*
X220982986Y-144641556D01*
X220987451Y-144650320D01*
X221112390Y-144822286D01*
X221262713Y-144972609D01*
X221434679Y-145097548D01*
X221434681Y-145097549D01*
X221434684Y-145097551D01*
X221624088Y-145194057D01*
X221826257Y-145259746D01*
X222036213Y-145293000D01*
X222036214Y-145293000D01*
X222248786Y-145293000D01*
X222248787Y-145293000D01*
X222458743Y-145259746D01*
X222660912Y-145194057D01*
X222850316Y-145097551D01*
X222936638Y-145034835D01*
X223022286Y-144972609D01*
X223022288Y-144972606D01*
X223022292Y-144972604D01*
X223172604Y-144822292D01*
X223172606Y-144822288D01*
X223172609Y-144822286D01*
X223297548Y-144650320D01*
X223297547Y-144650320D01*
X223297551Y-144650316D01*
X223394057Y-144460912D01*
X223459746Y-144258743D01*
X223493000Y-144048787D01*
X223493000Y-143836213D01*
X223459746Y-143626257D01*
X223394057Y-143424088D01*
X223297551Y-143234684D01*
X223297549Y-143234681D01*
X223297548Y-143234679D01*
X223172609Y-143062713D01*
X223022286Y-142912390D01*
X222850320Y-142787451D01*
X222660914Y-142690944D01*
X222660913Y-142690943D01*
X222660912Y-142690943D01*
X222458743Y-142625254D01*
X222458741Y-142625253D01*
X222458740Y-142625253D01*
X222297457Y-142599708D01*
X222248787Y-142592000D01*
X222036213Y-142592000D01*
X221987542Y-142599708D01*
X221826260Y-142625253D01*
X221624085Y-142690944D01*
X221434679Y-142787451D01*
X221262713Y-142912390D01*
X221112390Y-143062713D01*
X220987449Y-143234682D01*
X220982984Y-143243446D01*
X220935009Y-143294242D01*
X220867188Y-143311036D01*
X220801053Y-143288498D01*
X220762016Y-143243446D01*
X220757550Y-143234682D01*
X220632609Y-143062713D01*
X220482286Y-142912390D01*
X220310320Y-142787451D01*
X220120914Y-142690944D01*
X220120913Y-142690943D01*
X220120912Y-142690943D01*
X219918743Y-142625254D01*
X219918741Y-142625253D01*
X219918740Y-142625253D01*
X219757457Y-142599708D01*
X219708787Y-142592000D01*
X219496213Y-142592000D01*
X219447542Y-142599708D01*
X219286260Y-142625253D01*
X219084085Y-142690944D01*
X218894679Y-142787451D01*
X218722713Y-142912390D01*
X218572390Y-143062713D01*
X218447449Y-143234682D01*
X218442984Y-143243446D01*
X218395009Y-143294242D01*
X218327188Y-143311036D01*
X218261053Y-143288498D01*
X218222016Y-143243446D01*
X218217550Y-143234682D01*
X218092609Y-143062713D01*
X217942286Y-142912390D01*
X217770320Y-142787451D01*
X217580914Y-142690944D01*
X217580913Y-142690943D01*
X217580912Y-142690943D01*
X217378743Y-142625254D01*
X217378741Y-142625253D01*
X217378740Y-142625253D01*
X217217457Y-142599708D01*
X217168787Y-142592000D01*
X216956213Y-142592000D01*
X216907542Y-142599708D01*
X216746260Y-142625253D01*
X216544085Y-142690944D01*
X216354679Y-142787451D01*
X216182713Y-142912390D01*
X216032390Y-143062713D01*
X215907449Y-143234682D01*
X215902984Y-143243446D01*
X215855009Y-143294242D01*
X215787188Y-143311036D01*
X215721053Y-143288498D01*
X215682016Y-143243446D01*
X215677550Y-143234682D01*
X215552609Y-143062713D01*
X215402286Y-142912390D01*
X215230320Y-142787451D01*
X215040914Y-142690944D01*
X215040913Y-142690943D01*
X215040912Y-142690943D01*
X214838743Y-142625254D01*
X214838741Y-142625253D01*
X214838740Y-142625253D01*
X214677457Y-142599708D01*
X214628787Y-142592000D01*
X214416213Y-142592000D01*
X214367542Y-142599708D01*
X214206260Y-142625253D01*
X214004085Y-142690944D01*
X213814679Y-142787451D01*
X213642713Y-142912390D01*
X213492390Y-143062713D01*
X213367449Y-143234682D01*
X213362984Y-143243446D01*
X213315009Y-143294242D01*
X213247188Y-143311036D01*
X213181053Y-143288498D01*
X213142016Y-143243446D01*
X213137550Y-143234682D01*
X213012609Y-143062713D01*
X212862286Y-142912390D01*
X212690320Y-142787451D01*
X212500914Y-142690944D01*
X212500913Y-142690943D01*
X212500912Y-142690943D01*
X212298743Y-142625254D01*
X212298741Y-142625253D01*
X212298740Y-142625253D01*
X212137457Y-142599708D01*
X212088787Y-142592000D01*
X211876213Y-142592000D01*
X211827542Y-142599708D01*
X211666260Y-142625253D01*
X211464085Y-142690944D01*
X211274679Y-142787451D01*
X211102713Y-142912390D01*
X210952390Y-143062713D01*
X210827449Y-143234682D01*
X210822984Y-143243446D01*
X210775009Y-143294242D01*
X210707188Y-143311036D01*
X210641053Y-143288498D01*
X210602016Y-143243446D01*
X210597550Y-143234682D01*
X210472609Y-143062713D01*
X210322286Y-142912390D01*
X210150320Y-142787451D01*
X209960914Y-142690944D01*
X209960913Y-142690943D01*
X209960912Y-142690943D01*
X209758743Y-142625254D01*
X209758741Y-142625253D01*
X209758740Y-142625253D01*
X209597457Y-142599708D01*
X209548787Y-142592000D01*
X209336213Y-142592000D01*
X209287542Y-142599708D01*
X209126260Y-142625253D01*
X208924085Y-142690944D01*
X208734679Y-142787451D01*
X208562713Y-142912390D01*
X208412390Y-143062713D01*
X208287449Y-143234682D01*
X208282984Y-143243446D01*
X208235009Y-143294242D01*
X208167188Y-143311036D01*
X208101053Y-143288498D01*
X208062016Y-143243446D01*
X208057550Y-143234682D01*
X207932609Y-143062713D01*
X207782286Y-142912390D01*
X207610320Y-142787451D01*
X207420914Y-142690944D01*
X207420913Y-142690943D01*
X207420912Y-142690943D01*
X207218743Y-142625254D01*
X207218741Y-142625253D01*
X207218740Y-142625253D01*
X207057457Y-142599708D01*
X207008787Y-142592000D01*
X206796213Y-142592000D01*
X206747542Y-142599708D01*
X206586260Y-142625253D01*
X206384085Y-142690944D01*
X206194679Y-142787451D01*
X206022713Y-142912390D01*
X205872390Y-143062713D01*
X205747449Y-143234682D01*
X205742984Y-143243446D01*
X205695009Y-143294242D01*
X205627188Y-143311036D01*
X205561053Y-143288498D01*
X205522016Y-143243446D01*
X205517550Y-143234682D01*
X205392609Y-143062713D01*
X205242286Y-142912390D01*
X205070320Y-142787451D01*
X204880914Y-142690944D01*
X204880913Y-142690943D01*
X204880912Y-142690943D01*
X204678743Y-142625254D01*
X204678741Y-142625253D01*
X204678740Y-142625253D01*
X204517457Y-142599708D01*
X204468787Y-142592000D01*
X204256213Y-142592000D01*
X204207542Y-142599708D01*
X204046260Y-142625253D01*
X203844085Y-142690944D01*
X203654679Y-142787451D01*
X203482713Y-142912390D01*
X203332390Y-143062713D01*
X203207449Y-143234682D01*
X203202984Y-143243446D01*
X203155009Y-143294242D01*
X203087188Y-143311036D01*
X203021053Y-143288498D01*
X202982016Y-143243446D01*
X202977550Y-143234682D01*
X202852609Y-143062713D01*
X202702286Y-142912390D01*
X202530320Y-142787451D01*
X202340914Y-142690944D01*
X202340913Y-142690943D01*
X202340912Y-142690943D01*
X202138743Y-142625254D01*
X202138741Y-142625253D01*
X202138740Y-142625253D01*
X201977457Y-142599708D01*
X201928787Y-142592000D01*
X201716213Y-142592000D01*
X201667542Y-142599708D01*
X201506260Y-142625253D01*
X201304085Y-142690944D01*
X201114679Y-142787451D01*
X200942713Y-142912390D01*
X200792390Y-143062713D01*
X200667449Y-143234682D01*
X200662984Y-143243446D01*
X200615009Y-143294242D01*
X200547188Y-143311036D01*
X200481053Y-143288498D01*
X200442016Y-143243446D01*
X200437550Y-143234682D01*
X200312609Y-143062713D01*
X200162286Y-142912390D01*
X199990320Y-142787451D01*
X199800914Y-142690944D01*
X199800913Y-142690943D01*
X199800912Y-142690943D01*
X199598743Y-142625254D01*
X199598741Y-142625253D01*
X199598740Y-142625253D01*
X199437457Y-142599708D01*
X199388787Y-142592000D01*
X199176213Y-142592000D01*
X199127542Y-142599708D01*
X198966260Y-142625253D01*
X198764085Y-142690944D01*
X198574679Y-142787451D01*
X198402713Y-142912390D01*
X198252390Y-143062713D01*
X198127449Y-143234682D01*
X198122984Y-143243446D01*
X198075009Y-143294242D01*
X198007188Y-143311036D01*
X197941053Y-143288498D01*
X197902016Y-143243446D01*
X197897550Y-143234682D01*
X197772609Y-143062713D01*
X197622286Y-142912390D01*
X197450320Y-142787451D01*
X197260914Y-142690944D01*
X197260913Y-142690943D01*
X197260912Y-142690943D01*
X197058743Y-142625254D01*
X197058741Y-142625253D01*
X197058740Y-142625253D01*
X196897457Y-142599708D01*
X196848787Y-142592000D01*
X196636213Y-142592000D01*
X196587542Y-142599708D01*
X196426260Y-142625253D01*
X196224085Y-142690944D01*
X196034679Y-142787451D01*
X195862713Y-142912390D01*
X195712390Y-143062713D01*
X195587449Y-143234682D01*
X195582984Y-143243446D01*
X195535009Y-143294242D01*
X195467188Y-143311036D01*
X195401053Y-143288498D01*
X195362016Y-143243446D01*
X195357550Y-143234682D01*
X195232609Y-143062713D01*
X195082286Y-142912390D01*
X194910320Y-142787451D01*
X194720914Y-142690944D01*
X194720913Y-142690943D01*
X194720912Y-142690943D01*
X194518743Y-142625254D01*
X194518741Y-142625253D01*
X194518740Y-142625253D01*
X194357457Y-142599708D01*
X194308787Y-142592000D01*
X194096213Y-142592000D01*
X194047542Y-142599708D01*
X193886260Y-142625253D01*
X193684085Y-142690944D01*
X193494679Y-142787451D01*
X193322713Y-142912390D01*
X193172390Y-143062713D01*
X193047449Y-143234682D01*
X193042984Y-143243446D01*
X192995009Y-143294242D01*
X192927188Y-143311036D01*
X192861053Y-143288498D01*
X192822016Y-143243446D01*
X192817550Y-143234682D01*
X192692609Y-143062713D01*
X192542286Y-142912390D01*
X192370320Y-142787451D01*
X192180914Y-142690944D01*
X192180913Y-142690943D01*
X192180912Y-142690943D01*
X191978743Y-142625254D01*
X191978741Y-142625253D01*
X191978740Y-142625253D01*
X191817457Y-142599708D01*
X191768787Y-142592000D01*
X191556213Y-142592000D01*
X191507542Y-142599708D01*
X191346260Y-142625253D01*
X191144085Y-142690944D01*
X190954679Y-142787451D01*
X190782715Y-142912389D01*
X190669173Y-143025931D01*
X190607850Y-143059415D01*
X190538158Y-143054431D01*
X190482225Y-143012559D01*
X190465310Y-142981582D01*
X190416297Y-142850171D01*
X190416293Y-142850164D01*
X190330047Y-142734955D01*
X190330044Y-142734952D01*
X190214835Y-142648706D01*
X190214828Y-142648702D01*
X190079982Y-142598408D01*
X190079983Y-142598408D01*
X190020383Y-142592001D01*
X190020381Y-142592000D01*
X190020373Y-142592000D01*
X190020364Y-142592000D01*
X188224629Y-142592000D01*
X188224623Y-142592001D01*
X188165016Y-142598408D01*
X188030171Y-142648702D01*
X188030164Y-142648706D01*
X187914955Y-142734952D01*
X187914952Y-142734955D01*
X187828706Y-142850164D01*
X187828702Y-142850171D01*
X187778408Y-142985017D01*
X187772001Y-143044616D01*
X187772000Y-143044635D01*
X152500500Y-143044635D01*
X152500500Y-137827135D01*
X158099500Y-137827135D01*
X158099500Y-139622870D01*
X158099501Y-139622876D01*
X158105908Y-139682483D01*
X158156202Y-139817328D01*
X158156206Y-139817335D01*
X158242452Y-139932544D01*
X158242455Y-139932547D01*
X158357664Y-140018793D01*
X158357671Y-140018797D01*
X158492517Y-140069091D01*
X158492516Y-140069091D01*
X158499444Y-140069835D01*
X158552127Y-140075500D01*
X160347872Y-140075499D01*
X160407483Y-140069091D01*
X160542331Y-140018796D01*
X160657546Y-139932546D01*
X160743796Y-139817331D01*
X160792810Y-139685916D01*
X160834681Y-139629984D01*
X160900145Y-139605566D01*
X160968418Y-139620417D01*
X160996673Y-139641569D01*
X161110213Y-139755109D01*
X161282179Y-139880048D01*
X161282181Y-139880049D01*
X161282184Y-139880051D01*
X161471588Y-139976557D01*
X161673757Y-140042246D01*
X161883713Y-140075500D01*
X161883714Y-140075500D01*
X162096286Y-140075500D01*
X162096287Y-140075500D01*
X162306243Y-140042246D01*
X162508412Y-139976557D01*
X162697816Y-139880051D01*
X162784138Y-139817335D01*
X162869786Y-139755109D01*
X162869788Y-139755106D01*
X162869792Y-139755104D01*
X163020104Y-139604792D01*
X163020106Y-139604788D01*
X163020109Y-139604786D01*
X163145048Y-139432820D01*
X163145047Y-139432820D01*
X163145051Y-139432816D01*
X163149514Y-139424054D01*
X163197488Y-139373259D01*
X163265308Y-139356463D01*
X163331444Y-139378999D01*
X163370486Y-139424056D01*
X163374951Y-139432820D01*
X163499890Y-139604786D01*
X163650213Y-139755109D01*
X163822179Y-139880048D01*
X163822181Y-139880049D01*
X163822184Y-139880051D01*
X164011588Y-139976557D01*
X164213757Y-140042246D01*
X164423713Y-140075500D01*
X164423714Y-140075500D01*
X164636286Y-140075500D01*
X164636287Y-140075500D01*
X164846243Y-140042246D01*
X165048412Y-139976557D01*
X165237816Y-139880051D01*
X165324138Y-139817335D01*
X165409786Y-139755109D01*
X165409788Y-139755106D01*
X165409792Y-139755104D01*
X165560104Y-139604792D01*
X165560106Y-139604788D01*
X165560109Y-139604786D01*
X165685048Y-139432820D01*
X165685047Y-139432820D01*
X165685051Y-139432816D01*
X165689514Y-139424054D01*
X165737488Y-139373259D01*
X165805308Y-139356463D01*
X165871444Y-139378999D01*
X165910486Y-139424056D01*
X165914951Y-139432820D01*
X166039890Y-139604786D01*
X166190213Y-139755109D01*
X166362179Y-139880048D01*
X166362181Y-139880049D01*
X166362184Y-139880051D01*
X166551588Y-139976557D01*
X166753757Y-140042246D01*
X166963713Y-140075500D01*
X166963714Y-140075500D01*
X167176286Y-140075500D01*
X167176287Y-140075500D01*
X167386243Y-140042246D01*
X167588412Y-139976557D01*
X167777816Y-139880051D01*
X167864138Y-139817335D01*
X167949786Y-139755109D01*
X167949788Y-139755106D01*
X167949792Y-139755104D01*
X168100104Y-139604792D01*
X168100106Y-139604788D01*
X168100109Y-139604786D01*
X168225048Y-139432820D01*
X168225047Y-139432820D01*
X168225051Y-139432816D01*
X168229514Y-139424054D01*
X168277488Y-139373259D01*
X168345308Y-139356463D01*
X168411444Y-139378999D01*
X168450486Y-139424056D01*
X168454951Y-139432820D01*
X168579890Y-139604786D01*
X168730213Y-139755109D01*
X168902179Y-139880048D01*
X168902181Y-139880049D01*
X168902184Y-139880051D01*
X169091588Y-139976557D01*
X169293757Y-140042246D01*
X169503713Y-140075500D01*
X169503714Y-140075500D01*
X169716286Y-140075500D01*
X169716287Y-140075500D01*
X169926243Y-140042246D01*
X170128412Y-139976557D01*
X170317816Y-139880051D01*
X170404138Y-139817335D01*
X170489786Y-139755109D01*
X170489788Y-139755106D01*
X170489792Y-139755104D01*
X170640104Y-139604792D01*
X170640106Y-139604788D01*
X170640109Y-139604786D01*
X170765048Y-139432820D01*
X170765047Y-139432820D01*
X170765051Y-139432816D01*
X170769514Y-139424054D01*
X170817488Y-139373259D01*
X170885308Y-139356463D01*
X170951444Y-139378999D01*
X170990486Y-139424056D01*
X170994951Y-139432820D01*
X171119890Y-139604786D01*
X171270213Y-139755109D01*
X171442179Y-139880048D01*
X171442181Y-139880049D01*
X171442184Y-139880051D01*
X171631588Y-139976557D01*
X171833757Y-140042246D01*
X172043713Y-140075500D01*
X172043714Y-140075500D01*
X172256286Y-140075500D01*
X172256287Y-140075500D01*
X172466243Y-140042246D01*
X172668412Y-139976557D01*
X172857816Y-139880051D01*
X172944138Y-139817335D01*
X173029786Y-139755109D01*
X173029788Y-139755106D01*
X173029792Y-139755104D01*
X173180104Y-139604792D01*
X173180106Y-139604788D01*
X173180109Y-139604786D01*
X173305048Y-139432820D01*
X173305047Y-139432820D01*
X173305051Y-139432816D01*
X173309514Y-139424054D01*
X173357488Y-139373259D01*
X173425308Y-139356463D01*
X173491444Y-139378999D01*
X173530486Y-139424056D01*
X173534951Y-139432820D01*
X173659890Y-139604786D01*
X173810213Y-139755109D01*
X173982179Y-139880048D01*
X173982181Y-139880049D01*
X173982184Y-139880051D01*
X174171588Y-139976557D01*
X174373757Y-140042246D01*
X174583713Y-140075500D01*
X174583714Y-140075500D01*
X174796286Y-140075500D01*
X174796287Y-140075500D01*
X175006243Y-140042246D01*
X175208412Y-139976557D01*
X175397816Y-139880051D01*
X175484138Y-139817335D01*
X175569786Y-139755109D01*
X175569788Y-139755106D01*
X175569792Y-139755104D01*
X175720104Y-139604792D01*
X175720106Y-139604788D01*
X175720109Y-139604786D01*
X175845048Y-139432820D01*
X175845047Y-139432820D01*
X175845051Y-139432816D01*
X175941557Y-139243412D01*
X176007246Y-139041243D01*
X176040500Y-138831287D01*
X176040500Y-138618713D01*
X176007246Y-138408757D01*
X175941557Y-138206588D01*
X175845051Y-138017184D01*
X175845049Y-138017181D01*
X175845048Y-138017179D01*
X175720109Y-137845213D01*
X175569786Y-137694890D01*
X175397820Y-137569951D01*
X175208414Y-137473444D01*
X175208413Y-137473443D01*
X175208412Y-137473443D01*
X175006243Y-137407754D01*
X175006241Y-137407753D01*
X175006240Y-137407753D01*
X174844957Y-137382208D01*
X174796287Y-137374500D01*
X174583713Y-137374500D01*
X174535042Y-137382208D01*
X174373760Y-137407753D01*
X174171585Y-137473444D01*
X173982179Y-137569951D01*
X173810213Y-137694890D01*
X173659890Y-137845213D01*
X173534949Y-138017182D01*
X173530484Y-138025946D01*
X173482509Y-138076742D01*
X173414688Y-138093536D01*
X173348553Y-138070998D01*
X173309516Y-138025946D01*
X173305050Y-138017182D01*
X173180109Y-137845213D01*
X173029786Y-137694890D01*
X172857820Y-137569951D01*
X172668414Y-137473444D01*
X172668413Y-137473443D01*
X172668412Y-137473443D01*
X172466243Y-137407754D01*
X172466241Y-137407753D01*
X172466240Y-137407753D01*
X172304957Y-137382208D01*
X172256287Y-137374500D01*
X172043713Y-137374500D01*
X171995042Y-137382208D01*
X171833760Y-137407753D01*
X171631585Y-137473444D01*
X171442179Y-137569951D01*
X171270213Y-137694890D01*
X171119890Y-137845213D01*
X170994949Y-138017182D01*
X170990484Y-138025946D01*
X170942509Y-138076742D01*
X170874688Y-138093536D01*
X170808553Y-138070998D01*
X170769516Y-138025946D01*
X170765050Y-138017182D01*
X170640109Y-137845213D01*
X170489786Y-137694890D01*
X170317820Y-137569951D01*
X170128414Y-137473444D01*
X170128413Y-137473443D01*
X170128412Y-137473443D01*
X169926243Y-137407754D01*
X169926241Y-137407753D01*
X169926240Y-137407753D01*
X169764957Y-137382208D01*
X169716287Y-137374500D01*
X169503713Y-137374500D01*
X169455042Y-137382208D01*
X169293760Y-137407753D01*
X169091585Y-137473444D01*
X168902179Y-137569951D01*
X168730213Y-137694890D01*
X168579890Y-137845213D01*
X168454949Y-138017182D01*
X168450484Y-138025946D01*
X168402509Y-138076742D01*
X168334688Y-138093536D01*
X168268553Y-138070998D01*
X168229516Y-138025946D01*
X168225050Y-138017182D01*
X168100109Y-137845213D01*
X167949786Y-137694890D01*
X167777820Y-137569951D01*
X167588414Y-137473444D01*
X167588413Y-137473443D01*
X167588412Y-137473443D01*
X167386243Y-137407754D01*
X167386241Y-137407753D01*
X167386240Y-137407753D01*
X167224957Y-137382208D01*
X167176287Y-137374500D01*
X166963713Y-137374500D01*
X166915042Y-137382208D01*
X166753760Y-137407753D01*
X166551585Y-137473444D01*
X166362179Y-137569951D01*
X166190213Y-137694890D01*
X166039890Y-137845213D01*
X165914949Y-138017182D01*
X165910484Y-138025946D01*
X165862509Y-138076742D01*
X165794688Y-138093536D01*
X165728553Y-138070998D01*
X165689516Y-138025946D01*
X165685050Y-138017182D01*
X165560109Y-137845213D01*
X165409786Y-137694890D01*
X165237820Y-137569951D01*
X165048414Y-137473444D01*
X165048413Y-137473443D01*
X165048412Y-137473443D01*
X164846243Y-137407754D01*
X164846241Y-137407753D01*
X164846240Y-137407753D01*
X164684957Y-137382208D01*
X164636287Y-137374500D01*
X164423713Y-137374500D01*
X164375042Y-137382208D01*
X164213760Y-137407753D01*
X164011585Y-137473444D01*
X163822179Y-137569951D01*
X163650213Y-137694890D01*
X163499890Y-137845213D01*
X163374949Y-138017182D01*
X163370484Y-138025946D01*
X163322509Y-138076742D01*
X163254688Y-138093536D01*
X163188553Y-138070998D01*
X163149516Y-138025946D01*
X163145050Y-138017182D01*
X163020109Y-137845213D01*
X162869786Y-137694890D01*
X162697820Y-137569951D01*
X162508414Y-137473444D01*
X162508413Y-137473443D01*
X162508412Y-137473443D01*
X162306243Y-137407754D01*
X162306241Y-137407753D01*
X162306240Y-137407753D01*
X162144957Y-137382208D01*
X162096287Y-137374500D01*
X161883713Y-137374500D01*
X161835042Y-137382208D01*
X161673760Y-137407753D01*
X161471585Y-137473444D01*
X161282179Y-137569951D01*
X161110215Y-137694889D01*
X160996673Y-137808431D01*
X160935350Y-137841915D01*
X160865658Y-137836931D01*
X160809725Y-137795059D01*
X160792810Y-137764082D01*
X160743797Y-137632671D01*
X160743793Y-137632664D01*
X160657547Y-137517455D01*
X160657544Y-137517452D01*
X160542335Y-137431206D01*
X160542328Y-137431202D01*
X160407482Y-137380908D01*
X160407483Y-137380908D01*
X160347883Y-137374501D01*
X160347881Y-137374500D01*
X160347873Y-137374500D01*
X160347864Y-137374500D01*
X158552129Y-137374500D01*
X158552123Y-137374501D01*
X158492516Y-137380908D01*
X158357671Y-137431202D01*
X158357664Y-137431206D01*
X158242455Y-137517452D01*
X158242452Y-137517455D01*
X158156206Y-137632664D01*
X158156202Y-137632671D01*
X158105908Y-137767517D01*
X158099501Y-137827116D01*
X158099500Y-137827135D01*
X152500500Y-137827135D01*
X152500500Y-112136213D01*
X220512000Y-112136213D01*
X220512000Y-112348787D01*
X220545254Y-112558743D01*
X220558501Y-112599514D01*
X220610944Y-112760914D01*
X220707451Y-112950320D01*
X220832390Y-113122286D01*
X220982713Y-113272609D01*
X221154682Y-113397550D01*
X221163446Y-113402016D01*
X221214242Y-113449991D01*
X221231036Y-113517812D01*
X221208498Y-113583947D01*
X221163446Y-113622984D01*
X221154682Y-113627449D01*
X220982713Y-113752390D01*
X220832390Y-113902713D01*
X220707451Y-114074679D01*
X220610944Y-114264085D01*
X220545253Y-114466260D01*
X220512000Y-114676213D01*
X220512000Y-114888787D01*
X220545254Y-115098743D01*
X220558501Y-115139514D01*
X220610944Y-115300914D01*
X220707451Y-115490320D01*
X220832390Y-115662286D01*
X220982713Y-115812609D01*
X221154682Y-115937550D01*
X221163446Y-115942016D01*
X221214242Y-115989991D01*
X221231036Y-116057812D01*
X221208498Y-116123947D01*
X221163446Y-116162984D01*
X221154682Y-116167449D01*
X220982713Y-116292390D01*
X220832390Y-116442713D01*
X220707451Y-116614679D01*
X220610944Y-116804085D01*
X220545253Y-117006260D01*
X220512000Y-117216213D01*
X220512000Y-117428787D01*
X220545254Y-117638743D01*
X220558501Y-117679514D01*
X220610944Y-117840914D01*
X220707451Y-118030320D01*
X220832390Y-118202286D01*
X220982713Y-118352609D01*
X221154682Y-118477550D01*
X221163446Y-118482016D01*
X221214242Y-118529991D01*
X221231036Y-118597812D01*
X221208498Y-118663947D01*
X221163446Y-118702984D01*
X221154682Y-118707449D01*
X220982713Y-118832390D01*
X220832390Y-118982713D01*
X220707451Y-119154679D01*
X220610944Y-119344085D01*
X220545253Y-119546260D01*
X220512000Y-119756213D01*
X220512000Y-119968787D01*
X220545254Y-120178743D01*
X220558501Y-120219514D01*
X220610944Y-120380914D01*
X220707451Y-120570320D01*
X220832390Y-120742286D01*
X220982713Y-120892609D01*
X221154682Y-121017550D01*
X221163446Y-121022016D01*
X221214242Y-121069991D01*
X221231036Y-121137812D01*
X221208498Y-121203947D01*
X221163446Y-121242984D01*
X221154682Y-121247449D01*
X220982713Y-121372390D01*
X220832390Y-121522713D01*
X220707451Y-121694679D01*
X220610944Y-121884085D01*
X220545253Y-122086260D01*
X220512000Y-122296213D01*
X220512000Y-122508787D01*
X220545254Y-122718743D01*
X220558501Y-122759514D01*
X220610944Y-122920914D01*
X220707451Y-123110320D01*
X220832390Y-123282286D01*
X220982713Y-123432609D01*
X221154682Y-123557550D01*
X221163446Y-123562016D01*
X221214242Y-123609991D01*
X221231036Y-123677812D01*
X221208498Y-123743947D01*
X221163446Y-123782984D01*
X221154682Y-123787449D01*
X220982713Y-123912390D01*
X220832390Y-124062713D01*
X220707451Y-124234679D01*
X220610944Y-124424085D01*
X220545253Y-124626260D01*
X220512000Y-124836213D01*
X220512000Y-125048787D01*
X220545254Y-125258743D01*
X220558501Y-125299514D01*
X220610944Y-125460914D01*
X220707451Y-125650320D01*
X220832390Y-125822286D01*
X220982713Y-125972609D01*
X221154682Y-126097550D01*
X221163446Y-126102016D01*
X221214242Y-126149991D01*
X221231036Y-126217812D01*
X221208498Y-126283947D01*
X221163446Y-126322984D01*
X221154682Y-126327449D01*
X220982713Y-126452390D01*
X220832390Y-126602713D01*
X220707451Y-126774679D01*
X220610944Y-126964085D01*
X220545253Y-127166260D01*
X220512000Y-127376213D01*
X220512000Y-127588787D01*
X220545254Y-127798743D01*
X220558501Y-127839514D01*
X220610944Y-128000914D01*
X220707451Y-128190320D01*
X220832390Y-128362286D01*
X220982713Y-128512609D01*
X221154682Y-128637550D01*
X221163446Y-128642016D01*
X221214242Y-128689991D01*
X221231036Y-128757812D01*
X221208498Y-128823947D01*
X221163446Y-128862984D01*
X221154682Y-128867449D01*
X220982713Y-128992390D01*
X220832390Y-129142713D01*
X220707451Y-129314679D01*
X220610944Y-129504085D01*
X220545253Y-129706260D01*
X220512000Y-129916213D01*
X220512000Y-130128787D01*
X220545254Y-130338743D01*
X220558501Y-130379514D01*
X220610944Y-130540914D01*
X220707451Y-130730320D01*
X220832390Y-130902286D01*
X220982713Y-131052609D01*
X221154682Y-131177550D01*
X221163446Y-131182016D01*
X221214242Y-131229991D01*
X221231036Y-131297812D01*
X221208498Y-131363947D01*
X221163446Y-131402984D01*
X221154682Y-131407449D01*
X220982713Y-131532390D01*
X220832390Y-131682713D01*
X220707451Y-131854679D01*
X220610944Y-132044085D01*
X220545253Y-132246260D01*
X220512000Y-132456213D01*
X220512000Y-132668787D01*
X220545254Y-132878743D01*
X220558501Y-132919514D01*
X220610944Y-133080914D01*
X220707451Y-133270320D01*
X220832390Y-133442286D01*
X220945930Y-133555826D01*
X220979415Y-133617149D01*
X220974431Y-133686841D01*
X220932559Y-133742774D01*
X220901583Y-133759689D01*
X220770169Y-133808703D01*
X220770164Y-133808706D01*
X220654955Y-133894952D01*
X220654952Y-133894955D01*
X220568706Y-134010164D01*
X220568702Y-134010171D01*
X220518408Y-134145017D01*
X220513173Y-134193713D01*
X220512001Y-134204623D01*
X220512000Y-134204635D01*
X220512000Y-136000370D01*
X220512001Y-136000376D01*
X220518408Y-136059983D01*
X220568702Y-136194828D01*
X220568706Y-136194835D01*
X220654952Y-136310044D01*
X220654955Y-136310047D01*
X220770164Y-136396293D01*
X220770171Y-136396297D01*
X220905017Y-136446591D01*
X220905016Y-136446591D01*
X220911944Y-136447335D01*
X220964627Y-136453000D01*
X222760372Y-136452999D01*
X222819983Y-136446591D01*
X222954831Y-136396296D01*
X223070046Y-136310046D01*
X223156296Y-136194831D01*
X223206591Y-136059983D01*
X223213000Y-136000373D01*
X223212999Y-134204628D01*
X223206591Y-134145017D01*
X223156296Y-134010169D01*
X223156295Y-134010168D01*
X223156293Y-134010164D01*
X223070047Y-133894955D01*
X223070044Y-133894952D01*
X222954835Y-133808706D01*
X222954828Y-133808702D01*
X222823417Y-133759689D01*
X222767483Y-133717818D01*
X222743066Y-133652353D01*
X222757918Y-133584080D01*
X222779063Y-133555832D01*
X222892604Y-133442292D01*
X223017551Y-133270316D01*
X223114057Y-133080912D01*
X223179746Y-132878743D01*
X223213000Y-132668787D01*
X223213000Y-132456213D01*
X223179746Y-132246257D01*
X223114057Y-132044088D01*
X223017551Y-131854684D01*
X223017549Y-131854681D01*
X223017548Y-131854679D01*
X222892609Y-131682713D01*
X222742286Y-131532390D01*
X222570320Y-131407451D01*
X222569615Y-131407091D01*
X222561554Y-131402985D01*
X222510759Y-131355012D01*
X222493963Y-131287192D01*
X222516499Y-131221056D01*
X222561554Y-131182015D01*
X222570316Y-131177551D01*
X222592289Y-131161586D01*
X222742286Y-131052609D01*
X222742288Y-131052606D01*
X222742292Y-131052604D01*
X222892604Y-130902292D01*
X222892606Y-130902288D01*
X222892609Y-130902286D01*
X223017548Y-130730320D01*
X223017547Y-130730320D01*
X223017551Y-130730316D01*
X223114057Y-130540912D01*
X223179746Y-130338743D01*
X223213000Y-130128787D01*
X223213000Y-129916213D01*
X223179746Y-129706257D01*
X223114057Y-129504088D01*
X223017551Y-129314684D01*
X223017549Y-129314681D01*
X223017548Y-129314679D01*
X222892609Y-129142713D01*
X222742286Y-128992390D01*
X222570320Y-128867451D01*
X222569615Y-128867091D01*
X222561554Y-128862985D01*
X222510759Y-128815012D01*
X222493963Y-128747192D01*
X222516499Y-128681056D01*
X222561554Y-128642015D01*
X222570316Y-128637551D01*
X222592289Y-128621586D01*
X222742286Y-128512609D01*
X222742288Y-128512606D01*
X222742292Y-128512604D01*
X222892604Y-128362292D01*
X222892606Y-128362288D01*
X222892609Y-128362286D01*
X223017548Y-128190320D01*
X223017547Y-128190320D01*
X223017551Y-128190316D01*
X223114057Y-128000912D01*
X223179746Y-127798743D01*
X223213000Y-127588787D01*
X223213000Y-127376213D01*
X223179746Y-127166257D01*
X223114057Y-126964088D01*
X223017551Y-126774684D01*
X223017549Y-126774681D01*
X223017548Y-126774679D01*
X222892609Y-126602713D01*
X222742286Y-126452390D01*
X222570320Y-126327451D01*
X222569615Y-126327091D01*
X222561554Y-126322985D01*
X222510759Y-126275012D01*
X222493963Y-126207192D01*
X222516499Y-126141056D01*
X222561554Y-126102015D01*
X222570316Y-126097551D01*
X222592289Y-126081586D01*
X222742286Y-125972609D01*
X222742288Y-125972606D01*
X222742292Y-125972604D01*
X222892604Y-125822292D01*
X222892606Y-125822288D01*
X222892609Y-125822286D01*
X223017548Y-125650320D01*
X223017547Y-125650320D01*
X223017551Y-125650316D01*
X223114057Y-125460912D01*
X223179746Y-125258743D01*
X223213000Y-125048787D01*
X223213000Y-124836213D01*
X223179746Y-124626257D01*
X223114057Y-124424088D01*
X223017551Y-124234684D01*
X223017549Y-124234681D01*
X223017548Y-124234679D01*
X222892609Y-124062713D01*
X222742286Y-123912390D01*
X222570320Y-123787451D01*
X222569615Y-123787091D01*
X222561554Y-123782985D01*
X222510759Y-123735012D01*
X222493963Y-123667192D01*
X222516499Y-123601056D01*
X222561554Y-123562015D01*
X222570316Y-123557551D01*
X222592289Y-123541586D01*
X222742286Y-123432609D01*
X222742288Y-123432606D01*
X222742292Y-123432604D01*
X222892604Y-123282292D01*
X222892606Y-123282288D01*
X222892609Y-123282286D01*
X223017548Y-123110320D01*
X223017547Y-123110320D01*
X223017551Y-123110316D01*
X223114057Y-122920912D01*
X223179746Y-122718743D01*
X223213000Y-122508787D01*
X223213000Y-122296213D01*
X223179746Y-122086257D01*
X223114057Y-121884088D01*
X223017551Y-121694684D01*
X223017549Y-121694681D01*
X223017548Y-121694679D01*
X222892609Y-121522713D01*
X222742286Y-121372390D01*
X222570320Y-121247451D01*
X222569615Y-121247091D01*
X222561554Y-121242985D01*
X222510759Y-121195012D01*
X222493963Y-121127192D01*
X222516499Y-121061056D01*
X222561554Y-121022015D01*
X222570316Y-121017551D01*
X222592289Y-121001586D01*
X222742286Y-120892609D01*
X222742288Y-120892606D01*
X222742292Y-120892604D01*
X222892604Y-120742292D01*
X222892606Y-120742288D01*
X222892609Y-120742286D01*
X223017548Y-120570320D01*
X223017547Y-120570320D01*
X223017551Y-120570316D01*
X223114057Y-120380912D01*
X223179746Y-120178743D01*
X223213000Y-119968787D01*
X223213000Y-119756213D01*
X223179746Y-119546257D01*
X223114057Y-119344088D01*
X223017551Y-119154684D01*
X223017549Y-119154681D01*
X223017548Y-119154679D01*
X222892609Y-118982713D01*
X222742286Y-118832390D01*
X222570320Y-118707451D01*
X222569615Y-118707091D01*
X222561554Y-118702985D01*
X222510759Y-118655012D01*
X222493963Y-118587192D01*
X222516499Y-118521056D01*
X222561554Y-118482015D01*
X222570316Y-118477551D01*
X222592289Y-118461586D01*
X222742286Y-118352609D01*
X222742288Y-118352606D01*
X222742292Y-118352604D01*
X222892604Y-118202292D01*
X222892606Y-118202288D01*
X222892609Y-118202286D01*
X223017548Y-118030320D01*
X223017547Y-118030320D01*
X223017551Y-118030316D01*
X223114057Y-117840912D01*
X223179746Y-117638743D01*
X223213000Y-117428787D01*
X223213000Y-117216213D01*
X223179746Y-117006257D01*
X223114057Y-116804088D01*
X223017551Y-116614684D01*
X223017549Y-116614681D01*
X223017548Y-116614679D01*
X222892609Y-116442713D01*
X222742286Y-116292390D01*
X222570320Y-116167451D01*
X222569615Y-116167091D01*
X222561554Y-116162985D01*
X222510759Y-116115012D01*
X222493963Y-116047192D01*
X222516499Y-115981056D01*
X222561554Y-115942015D01*
X222570316Y-115937551D01*
X222592289Y-115921586D01*
X222742286Y-115812609D01*
X222742288Y-115812606D01*
X222742292Y-115812604D01*
X222892604Y-115662292D01*
X222892606Y-115662288D01*
X222892609Y-115662286D01*
X223017548Y-115490320D01*
X223017547Y-115490320D01*
X223017551Y-115490316D01*
X223114057Y-115300912D01*
X223179746Y-115098743D01*
X223213000Y-114888787D01*
X223213000Y-114676213D01*
X223179746Y-114466257D01*
X223114057Y-114264088D01*
X223017551Y-114074684D01*
X223017549Y-114074681D01*
X223017548Y-114074679D01*
X222892609Y-113902713D01*
X222742286Y-113752390D01*
X222570320Y-113627451D01*
X222569615Y-113627091D01*
X222561554Y-113622985D01*
X222510759Y-113575012D01*
X222493963Y-113507192D01*
X222516499Y-113441056D01*
X222561554Y-113402015D01*
X222570316Y-113397551D01*
X222592289Y-113381586D01*
X222742286Y-113272609D01*
X222742288Y-113272606D01*
X222742292Y-113272604D01*
X222892604Y-113122292D01*
X222892606Y-113122288D01*
X222892609Y-113122286D01*
X223017548Y-112950320D01*
X223017547Y-112950320D01*
X223017551Y-112950316D01*
X223114057Y-112760912D01*
X223179746Y-112558743D01*
X223213000Y-112348787D01*
X223213000Y-112136213D01*
X223179746Y-111926257D01*
X223114057Y-111724088D01*
X223017551Y-111534684D01*
X223017549Y-111534681D01*
X223017548Y-111534679D01*
X222892609Y-111362713D01*
X222742286Y-111212390D01*
X222570320Y-111087451D01*
X222380914Y-110990944D01*
X222380913Y-110990943D01*
X222380912Y-110990943D01*
X222178743Y-110925254D01*
X222178741Y-110925253D01*
X222178740Y-110925253D01*
X222017457Y-110899708D01*
X221968787Y-110892000D01*
X221756213Y-110892000D01*
X221707542Y-110899708D01*
X221546260Y-110925253D01*
X221344085Y-110990944D01*
X221154679Y-111087451D01*
X220982713Y-111212390D01*
X220832390Y-111362713D01*
X220707451Y-111534679D01*
X220610944Y-111724085D01*
X220545253Y-111926260D01*
X220512000Y-112136213D01*
X152500500Y-112136213D01*
X152500500Y-106327135D01*
X157974500Y-106327135D01*
X157974500Y-108122870D01*
X157974501Y-108122876D01*
X157980908Y-108182483D01*
X158031202Y-108317328D01*
X158031206Y-108317335D01*
X158117452Y-108432544D01*
X158117455Y-108432547D01*
X158232664Y-108518793D01*
X158232671Y-108518797D01*
X158367517Y-108569091D01*
X158367516Y-108569091D01*
X158374444Y-108569835D01*
X158427127Y-108575500D01*
X160222872Y-108575499D01*
X160282483Y-108569091D01*
X160417331Y-108518796D01*
X160532546Y-108432546D01*
X160618796Y-108317331D01*
X160667810Y-108185916D01*
X160709681Y-108129984D01*
X160775145Y-108105566D01*
X160843418Y-108120417D01*
X160871673Y-108141569D01*
X160985213Y-108255109D01*
X161157179Y-108380048D01*
X161157181Y-108380049D01*
X161157184Y-108380051D01*
X161346588Y-108476557D01*
X161548757Y-108542246D01*
X161758713Y-108575500D01*
X161758714Y-108575500D01*
X161971286Y-108575500D01*
X161971287Y-108575500D01*
X162181243Y-108542246D01*
X162383412Y-108476557D01*
X162572816Y-108380051D01*
X162659138Y-108317335D01*
X162744786Y-108255109D01*
X162744788Y-108255106D01*
X162744792Y-108255104D01*
X162895104Y-108104792D01*
X162895106Y-108104788D01*
X162895109Y-108104786D01*
X163020048Y-107932820D01*
X163020047Y-107932820D01*
X163020051Y-107932816D01*
X163024514Y-107924054D01*
X163072488Y-107873259D01*
X163140308Y-107856463D01*
X163206444Y-107878999D01*
X163245486Y-107924056D01*
X163249951Y-107932820D01*
X163374890Y-108104786D01*
X163525213Y-108255109D01*
X163697179Y-108380048D01*
X163697181Y-108380049D01*
X163697184Y-108380051D01*
X163886588Y-108476557D01*
X164088757Y-108542246D01*
X164298713Y-108575500D01*
X164298714Y-108575500D01*
X164511286Y-108575500D01*
X164511287Y-108575500D01*
X164721243Y-108542246D01*
X164923412Y-108476557D01*
X165112816Y-108380051D01*
X165199138Y-108317335D01*
X165284786Y-108255109D01*
X165284788Y-108255106D01*
X165284792Y-108255104D01*
X165435104Y-108104792D01*
X165435106Y-108104788D01*
X165435109Y-108104786D01*
X165560048Y-107932820D01*
X165560047Y-107932820D01*
X165560051Y-107932816D01*
X165564514Y-107924054D01*
X165612488Y-107873259D01*
X165680308Y-107856463D01*
X165746444Y-107878999D01*
X165785486Y-107924056D01*
X165789951Y-107932820D01*
X165914890Y-108104786D01*
X166065213Y-108255109D01*
X166237179Y-108380048D01*
X166237181Y-108380049D01*
X166237184Y-108380051D01*
X166426588Y-108476557D01*
X166628757Y-108542246D01*
X166838713Y-108575500D01*
X166838714Y-108575500D01*
X167051286Y-108575500D01*
X167051287Y-108575500D01*
X167261243Y-108542246D01*
X167463412Y-108476557D01*
X167652816Y-108380051D01*
X167739138Y-108317335D01*
X167824786Y-108255109D01*
X167824788Y-108255106D01*
X167824792Y-108255104D01*
X167975104Y-108104792D01*
X167975106Y-108104788D01*
X167975109Y-108104786D01*
X168100048Y-107932820D01*
X168100047Y-107932820D01*
X168100051Y-107932816D01*
X168104514Y-107924054D01*
X168152488Y-107873259D01*
X168220308Y-107856463D01*
X168286444Y-107878999D01*
X168325486Y-107924056D01*
X168329951Y-107932820D01*
X168454890Y-108104786D01*
X168605213Y-108255109D01*
X168777179Y-108380048D01*
X168777181Y-108380049D01*
X168777184Y-108380051D01*
X168966588Y-108476557D01*
X169168757Y-108542246D01*
X169378713Y-108575500D01*
X169378714Y-108575500D01*
X169591286Y-108575500D01*
X169591287Y-108575500D01*
X169801243Y-108542246D01*
X170003412Y-108476557D01*
X170192816Y-108380051D01*
X170279138Y-108317335D01*
X170364786Y-108255109D01*
X170364788Y-108255106D01*
X170364792Y-108255104D01*
X170515104Y-108104792D01*
X170515106Y-108104788D01*
X170515109Y-108104786D01*
X170640048Y-107932820D01*
X170640047Y-107932820D01*
X170640051Y-107932816D01*
X170644514Y-107924054D01*
X170692488Y-107873259D01*
X170760308Y-107856463D01*
X170826444Y-107878999D01*
X170865486Y-107924056D01*
X170869951Y-107932820D01*
X170994890Y-108104786D01*
X171145213Y-108255109D01*
X171317179Y-108380048D01*
X171317181Y-108380049D01*
X171317184Y-108380051D01*
X171506588Y-108476557D01*
X171708757Y-108542246D01*
X171918713Y-108575500D01*
X171918714Y-108575500D01*
X172131286Y-108575500D01*
X172131287Y-108575500D01*
X172341243Y-108542246D01*
X172543412Y-108476557D01*
X172732816Y-108380051D01*
X172819138Y-108317335D01*
X172904786Y-108255109D01*
X172904788Y-108255106D01*
X172904792Y-108255104D01*
X173055104Y-108104792D01*
X173055106Y-108104788D01*
X173055109Y-108104786D01*
X173180048Y-107932820D01*
X173180047Y-107932820D01*
X173180051Y-107932816D01*
X173184514Y-107924054D01*
X173232488Y-107873259D01*
X173300308Y-107856463D01*
X173366444Y-107878999D01*
X173405486Y-107924056D01*
X173409951Y-107932820D01*
X173534890Y-108104786D01*
X173685213Y-108255109D01*
X173857179Y-108380048D01*
X173857181Y-108380049D01*
X173857184Y-108380051D01*
X174046588Y-108476557D01*
X174248757Y-108542246D01*
X174458713Y-108575500D01*
X174458714Y-108575500D01*
X174671286Y-108575500D01*
X174671287Y-108575500D01*
X174881243Y-108542246D01*
X175083412Y-108476557D01*
X175272816Y-108380051D01*
X175359138Y-108317335D01*
X175444786Y-108255109D01*
X175444788Y-108255106D01*
X175444792Y-108255104D01*
X175595104Y-108104792D01*
X175595106Y-108104788D01*
X175595109Y-108104786D01*
X175669688Y-108002135D01*
X235149500Y-108002135D01*
X235149500Y-109797870D01*
X235149501Y-109797876D01*
X235155908Y-109857483D01*
X235206202Y-109992328D01*
X235206206Y-109992335D01*
X235292452Y-110107544D01*
X235292455Y-110107547D01*
X235407664Y-110193793D01*
X235407671Y-110193797D01*
X235539082Y-110242810D01*
X235595016Y-110284681D01*
X235619433Y-110350145D01*
X235604582Y-110418418D01*
X235583431Y-110446673D01*
X235469889Y-110560215D01*
X235344951Y-110732179D01*
X235248444Y-110921585D01*
X235182753Y-111123760D01*
X235149500Y-111333713D01*
X235149500Y-111546286D01*
X235177660Y-111724085D01*
X235182754Y-111756243D01*
X235237995Y-111926257D01*
X235248444Y-111958414D01*
X235344951Y-112147820D01*
X235469890Y-112319786D01*
X235620213Y-112470109D01*
X235792182Y-112595050D01*
X235800946Y-112599516D01*
X235851742Y-112647491D01*
X235868536Y-112715312D01*
X235845998Y-112781447D01*
X235800946Y-112820484D01*
X235792182Y-112824949D01*
X235620213Y-112949890D01*
X235469890Y-113100213D01*
X235344951Y-113272179D01*
X235248444Y-113461585D01*
X235182753Y-113663760D01*
X235149500Y-113873713D01*
X235149500Y-114086286D01*
X235177660Y-114264085D01*
X235182754Y-114296243D01*
X235237995Y-114466257D01*
X235248444Y-114498414D01*
X235344951Y-114687820D01*
X235469890Y-114859786D01*
X235620213Y-115010109D01*
X235792182Y-115135050D01*
X235800946Y-115139516D01*
X235851742Y-115187491D01*
X235868536Y-115255312D01*
X235845998Y-115321447D01*
X235800946Y-115360484D01*
X235792182Y-115364949D01*
X235620213Y-115489890D01*
X235469890Y-115640213D01*
X235344951Y-115812179D01*
X235248444Y-116001585D01*
X235182753Y-116203760D01*
X235149500Y-116413713D01*
X235149500Y-116626286D01*
X235177660Y-116804085D01*
X235182754Y-116836243D01*
X235237995Y-117006257D01*
X235248444Y-117038414D01*
X235344951Y-117227820D01*
X235469890Y-117399786D01*
X235620213Y-117550109D01*
X235792182Y-117675050D01*
X235800946Y-117679516D01*
X235851742Y-117727491D01*
X235868536Y-117795312D01*
X235845998Y-117861447D01*
X235800946Y-117900484D01*
X235792182Y-117904949D01*
X235620213Y-118029890D01*
X235469890Y-118180213D01*
X235344951Y-118352179D01*
X235248444Y-118541585D01*
X235182753Y-118743760D01*
X235149500Y-118953713D01*
X235149500Y-119166286D01*
X235177660Y-119344085D01*
X235182754Y-119376243D01*
X235237995Y-119546257D01*
X235248444Y-119578414D01*
X235344951Y-119767820D01*
X235469890Y-119939786D01*
X235620213Y-120090109D01*
X235792182Y-120215050D01*
X235800946Y-120219516D01*
X235851742Y-120267491D01*
X235868536Y-120335312D01*
X235845998Y-120401447D01*
X235800946Y-120440484D01*
X235792182Y-120444949D01*
X235620213Y-120569890D01*
X235469890Y-120720213D01*
X235344951Y-120892179D01*
X235248444Y-121081585D01*
X235182753Y-121283760D01*
X235149500Y-121493713D01*
X235149500Y-121706286D01*
X235177660Y-121884085D01*
X235182754Y-121916243D01*
X235237995Y-122086257D01*
X235248444Y-122118414D01*
X235344951Y-122307820D01*
X235469890Y-122479786D01*
X235620213Y-122630109D01*
X235792182Y-122755050D01*
X235800946Y-122759516D01*
X235851742Y-122807491D01*
X235868536Y-122875312D01*
X235845998Y-122941447D01*
X235800946Y-122980484D01*
X235792182Y-122984949D01*
X235620213Y-123109890D01*
X235469890Y-123260213D01*
X235344951Y-123432179D01*
X235248444Y-123621585D01*
X235182753Y-123823760D01*
X235149500Y-124033713D01*
X235149500Y-124246286D01*
X235177660Y-124424085D01*
X235182754Y-124456243D01*
X235237995Y-124626257D01*
X235248444Y-124658414D01*
X235344951Y-124847820D01*
X235469890Y-125019786D01*
X235620213Y-125170109D01*
X235792182Y-125295050D01*
X235800946Y-125299516D01*
X235851742Y-125347491D01*
X235868536Y-125415312D01*
X235845998Y-125481447D01*
X235800946Y-125520484D01*
X235792182Y-125524949D01*
X235620213Y-125649890D01*
X235469890Y-125800213D01*
X235344951Y-125972179D01*
X235248444Y-126161585D01*
X235182753Y-126363760D01*
X235149500Y-126573713D01*
X235149500Y-126786286D01*
X235177660Y-126964085D01*
X235182754Y-126996243D01*
X235237995Y-127166257D01*
X235248444Y-127198414D01*
X235344951Y-127387820D01*
X235469890Y-127559786D01*
X235620213Y-127710109D01*
X235792182Y-127835050D01*
X235800946Y-127839516D01*
X235851742Y-127887491D01*
X235868536Y-127955312D01*
X235845998Y-128021447D01*
X235800946Y-128060484D01*
X235792182Y-128064949D01*
X235620213Y-128189890D01*
X235469890Y-128340213D01*
X235344951Y-128512179D01*
X235248444Y-128701585D01*
X235182753Y-128903760D01*
X235149500Y-129113713D01*
X235149500Y-129326286D01*
X235177660Y-129504085D01*
X235182754Y-129536243D01*
X235237995Y-129706257D01*
X235248444Y-129738414D01*
X235344951Y-129927820D01*
X235469890Y-130099786D01*
X235620213Y-130250109D01*
X235792182Y-130375050D01*
X235800946Y-130379516D01*
X235851742Y-130427491D01*
X235868536Y-130495312D01*
X235845998Y-130561447D01*
X235800946Y-130600484D01*
X235792182Y-130604949D01*
X235620213Y-130729890D01*
X235469890Y-130880213D01*
X235344951Y-131052179D01*
X235248444Y-131241585D01*
X235182753Y-131443760D01*
X235149500Y-131653713D01*
X235149500Y-131866286D01*
X235177660Y-132044085D01*
X235182754Y-132076243D01*
X235237995Y-132246257D01*
X235248444Y-132278414D01*
X235344951Y-132467820D01*
X235469890Y-132639786D01*
X235620213Y-132790109D01*
X235792182Y-132915050D01*
X235800946Y-132919516D01*
X235851742Y-132967491D01*
X235868536Y-133035312D01*
X235845998Y-133101447D01*
X235800946Y-133140484D01*
X235792182Y-133144949D01*
X235620213Y-133269890D01*
X235469890Y-133420213D01*
X235344951Y-133592179D01*
X235248444Y-133781585D01*
X235182753Y-133983760D01*
X235149500Y-134193713D01*
X235149500Y-134406286D01*
X235182753Y-134616239D01*
X235248444Y-134818414D01*
X235344951Y-135007820D01*
X235469890Y-135179786D01*
X235620213Y-135330109D01*
X235792182Y-135455050D01*
X235800946Y-135459516D01*
X235851742Y-135507491D01*
X235868536Y-135575312D01*
X235845998Y-135641447D01*
X235800946Y-135680484D01*
X235792182Y-135684949D01*
X235620213Y-135809890D01*
X235469890Y-135960213D01*
X235344951Y-136132179D01*
X235248444Y-136321585D01*
X235182753Y-136523760D01*
X235149500Y-136733713D01*
X235149500Y-136946286D01*
X235182753Y-137156239D01*
X235248444Y-137358414D01*
X235344951Y-137547820D01*
X235469890Y-137719786D01*
X235620213Y-137870109D01*
X235792179Y-137995048D01*
X235792181Y-137995049D01*
X235792184Y-137995051D01*
X235981588Y-138091557D01*
X236183757Y-138157246D01*
X236393713Y-138190500D01*
X236393714Y-138190500D01*
X236606286Y-138190500D01*
X236606287Y-138190500D01*
X236816243Y-138157246D01*
X237018412Y-138091557D01*
X237207816Y-137995051D01*
X237229789Y-137979086D01*
X237379786Y-137870109D01*
X237379788Y-137870106D01*
X237379792Y-137870104D01*
X237530104Y-137719792D01*
X237530106Y-137719788D01*
X237530109Y-137719786D01*
X237655048Y-137547820D01*
X237655047Y-137547820D01*
X237655051Y-137547816D01*
X237751557Y-137358412D01*
X237817246Y-137156243D01*
X237850500Y-136946287D01*
X237850500Y-136733713D01*
X237817246Y-136523757D01*
X237751557Y-136321588D01*
X237655051Y-136132184D01*
X237655049Y-136132181D01*
X237655048Y-136132179D01*
X237530109Y-135960213D01*
X237379786Y-135809890D01*
X237207820Y-135684951D01*
X237207115Y-135684591D01*
X237199054Y-135680485D01*
X237148259Y-135632512D01*
X237131463Y-135564692D01*
X237153999Y-135498556D01*
X237199054Y-135459515D01*
X237207816Y-135455051D01*
X237229789Y-135439086D01*
X237379786Y-135330109D01*
X237379788Y-135330106D01*
X237379792Y-135330104D01*
X237530104Y-135179792D01*
X237530106Y-135179788D01*
X237530109Y-135179786D01*
X237655048Y-135007820D01*
X237655047Y-135007820D01*
X237655051Y-135007816D01*
X237751557Y-134818412D01*
X237817246Y-134616243D01*
X237850500Y-134406287D01*
X237850500Y-134193713D01*
X237817246Y-133983757D01*
X237751557Y-133781588D01*
X237655051Y-133592184D01*
X237655049Y-133592181D01*
X237655048Y-133592179D01*
X237530109Y-133420213D01*
X237379786Y-133269890D01*
X237207820Y-133144951D01*
X237207115Y-133144591D01*
X237199054Y-133140485D01*
X237148259Y-133092512D01*
X237131463Y-133024692D01*
X237153999Y-132958556D01*
X237199054Y-132919515D01*
X237207816Y-132915051D01*
X237257796Y-132878739D01*
X237379786Y-132790109D01*
X237379788Y-132790106D01*
X237379792Y-132790104D01*
X237530104Y-132639792D01*
X237530106Y-132639788D01*
X237530109Y-132639786D01*
X237655048Y-132467820D01*
X237655047Y-132467820D01*
X237655051Y-132467816D01*
X237751557Y-132278412D01*
X237817246Y-132076243D01*
X237850500Y-131866287D01*
X237850500Y-131653713D01*
X237817246Y-131443757D01*
X237751557Y-131241588D01*
X237655051Y-131052184D01*
X237655049Y-131052181D01*
X237655048Y-131052179D01*
X237530109Y-130880213D01*
X237379786Y-130729890D01*
X237207820Y-130604951D01*
X237207115Y-130604591D01*
X237199054Y-130600485D01*
X237148259Y-130552512D01*
X237131463Y-130484692D01*
X237153999Y-130418556D01*
X237199054Y-130379515D01*
X237207816Y-130375051D01*
X237257796Y-130338739D01*
X237379786Y-130250109D01*
X237379788Y-130250106D01*
X237379792Y-130250104D01*
X237530104Y-130099792D01*
X237530106Y-130099788D01*
X237530109Y-130099786D01*
X237655048Y-129927820D01*
X237655047Y-129927820D01*
X237655051Y-129927816D01*
X237751557Y-129738412D01*
X237817246Y-129536243D01*
X237850500Y-129326287D01*
X237850500Y-129113713D01*
X237817246Y-128903757D01*
X237751557Y-128701588D01*
X237655051Y-128512184D01*
X237655049Y-128512181D01*
X237655048Y-128512179D01*
X237530109Y-128340213D01*
X237379786Y-128189890D01*
X237207820Y-128064951D01*
X237207115Y-128064591D01*
X237199054Y-128060485D01*
X237148259Y-128012512D01*
X237131463Y-127944692D01*
X237153999Y-127878556D01*
X237199054Y-127839515D01*
X237207816Y-127835051D01*
X237257796Y-127798739D01*
X237379786Y-127710109D01*
X237379788Y-127710106D01*
X237379792Y-127710104D01*
X237530104Y-127559792D01*
X237530106Y-127559788D01*
X237530109Y-127559786D01*
X237655048Y-127387820D01*
X237655047Y-127387820D01*
X237655051Y-127387816D01*
X237751557Y-127198412D01*
X237817246Y-126996243D01*
X237850500Y-126786287D01*
X237850500Y-126573713D01*
X237817246Y-126363757D01*
X237751557Y-126161588D01*
X237655051Y-125972184D01*
X237655049Y-125972181D01*
X237655048Y-125972179D01*
X237530109Y-125800213D01*
X237379786Y-125649890D01*
X237207820Y-125524951D01*
X237207115Y-125524591D01*
X237199054Y-125520485D01*
X237148259Y-125472512D01*
X237131463Y-125404692D01*
X237153999Y-125338556D01*
X237199054Y-125299515D01*
X237207816Y-125295051D01*
X237257796Y-125258739D01*
X237379786Y-125170109D01*
X237379788Y-125170106D01*
X237379792Y-125170104D01*
X237530104Y-125019792D01*
X237530106Y-125019788D01*
X237530109Y-125019786D01*
X237655048Y-124847820D01*
X237655047Y-124847820D01*
X237655051Y-124847816D01*
X237751557Y-124658412D01*
X237817246Y-124456243D01*
X237850500Y-124246287D01*
X237850500Y-124033713D01*
X237817246Y-123823757D01*
X237751557Y-123621588D01*
X237655051Y-123432184D01*
X237655049Y-123432181D01*
X237655048Y-123432179D01*
X237530109Y-123260213D01*
X237379786Y-123109890D01*
X237207820Y-122984951D01*
X237207115Y-122984591D01*
X237199054Y-122980485D01*
X237148259Y-122932512D01*
X237131463Y-122864692D01*
X237153999Y-122798556D01*
X237199054Y-122759515D01*
X237207816Y-122755051D01*
X237257796Y-122718739D01*
X237379786Y-122630109D01*
X237379788Y-122630106D01*
X237379792Y-122630104D01*
X237530104Y-122479792D01*
X237530106Y-122479788D01*
X237530109Y-122479786D01*
X237655048Y-122307820D01*
X237655047Y-122307820D01*
X237655051Y-122307816D01*
X237751557Y-122118412D01*
X237817246Y-121916243D01*
X237850500Y-121706287D01*
X237850500Y-121493713D01*
X237817246Y-121283757D01*
X237751557Y-121081588D01*
X237655051Y-120892184D01*
X237655049Y-120892181D01*
X237655048Y-120892179D01*
X237530109Y-120720213D01*
X237379786Y-120569890D01*
X237207820Y-120444951D01*
X237207115Y-120444591D01*
X237199054Y-120440485D01*
X237148259Y-120392512D01*
X237131463Y-120324692D01*
X237153999Y-120258556D01*
X237199054Y-120219515D01*
X237207816Y-120215051D01*
X237257796Y-120178739D01*
X237379786Y-120090109D01*
X237379788Y-120090106D01*
X237379792Y-120090104D01*
X237530104Y-119939792D01*
X237530106Y-119939788D01*
X237530109Y-119939786D01*
X237655048Y-119767820D01*
X237655047Y-119767820D01*
X237655051Y-119767816D01*
X237751557Y-119578412D01*
X237817246Y-119376243D01*
X237850500Y-119166287D01*
X237850500Y-118953713D01*
X237817246Y-118743757D01*
X237751557Y-118541588D01*
X237655051Y-118352184D01*
X237655049Y-118352181D01*
X237655048Y-118352179D01*
X237530109Y-118180213D01*
X237379786Y-118029890D01*
X237207820Y-117904951D01*
X237207115Y-117904591D01*
X237199054Y-117900485D01*
X237148259Y-117852512D01*
X237131463Y-117784692D01*
X237153999Y-117718556D01*
X237199054Y-117679515D01*
X237207816Y-117675051D01*
X237257796Y-117638739D01*
X237379786Y-117550109D01*
X237379788Y-117550106D01*
X237379792Y-117550104D01*
X237530104Y-117399792D01*
X237530106Y-117399788D01*
X237530109Y-117399786D01*
X237655048Y-117227820D01*
X237655047Y-117227820D01*
X237655051Y-117227816D01*
X237751557Y-117038412D01*
X237817246Y-116836243D01*
X237850500Y-116626287D01*
X237850500Y-116413713D01*
X237817246Y-116203757D01*
X237751557Y-116001588D01*
X237655051Y-115812184D01*
X237655049Y-115812181D01*
X237655048Y-115812179D01*
X237530109Y-115640213D01*
X237379786Y-115489890D01*
X237207820Y-115364951D01*
X237207115Y-115364591D01*
X237199054Y-115360485D01*
X237148259Y-115312512D01*
X237131463Y-115244692D01*
X237153999Y-115178556D01*
X237199054Y-115139515D01*
X237207816Y-115135051D01*
X237257796Y-115098739D01*
X237379786Y-115010109D01*
X237379788Y-115010106D01*
X237379792Y-115010104D01*
X237530104Y-114859792D01*
X237530106Y-114859788D01*
X237530109Y-114859786D01*
X237655048Y-114687820D01*
X237655047Y-114687820D01*
X237655051Y-114687816D01*
X237751557Y-114498412D01*
X237817246Y-114296243D01*
X237850500Y-114086287D01*
X237850500Y-113873713D01*
X237817246Y-113663757D01*
X237751557Y-113461588D01*
X237655051Y-113272184D01*
X237655049Y-113272181D01*
X237655048Y-113272179D01*
X237530109Y-113100213D01*
X237379786Y-112949890D01*
X237207820Y-112824951D01*
X237207115Y-112824591D01*
X237199054Y-112820485D01*
X237148259Y-112772512D01*
X237131463Y-112704692D01*
X237153999Y-112638556D01*
X237199054Y-112599515D01*
X237207816Y-112595051D01*
X237257796Y-112558739D01*
X237379786Y-112470109D01*
X237379788Y-112470106D01*
X237379792Y-112470104D01*
X237530104Y-112319792D01*
X237530106Y-112319788D01*
X237530109Y-112319786D01*
X237655048Y-112147820D01*
X237655047Y-112147820D01*
X237655051Y-112147816D01*
X237751557Y-111958412D01*
X237817246Y-111756243D01*
X237850500Y-111546287D01*
X237850500Y-111333713D01*
X237817246Y-111123757D01*
X237751557Y-110921588D01*
X237655051Y-110732184D01*
X237655049Y-110732181D01*
X237655048Y-110732179D01*
X237530109Y-110560213D01*
X237416569Y-110446673D01*
X237383084Y-110385350D01*
X237388068Y-110315658D01*
X237429940Y-110259725D01*
X237460915Y-110242810D01*
X237592331Y-110193796D01*
X237707546Y-110107546D01*
X237793796Y-109992331D01*
X237844091Y-109857483D01*
X237850500Y-109797873D01*
X237850499Y-108002135D01*
X258649500Y-108002135D01*
X258649500Y-109797870D01*
X258649501Y-109797876D01*
X258655908Y-109857483D01*
X258706202Y-109992328D01*
X258706206Y-109992335D01*
X258792452Y-110107544D01*
X258792455Y-110107547D01*
X258907664Y-110193793D01*
X258907671Y-110193797D01*
X259039082Y-110242810D01*
X259095016Y-110284681D01*
X259119433Y-110350145D01*
X259104582Y-110418418D01*
X259083431Y-110446673D01*
X258969889Y-110560215D01*
X258844951Y-110732179D01*
X258748444Y-110921585D01*
X258682753Y-111123760D01*
X258649500Y-111333713D01*
X258649500Y-111546286D01*
X258677660Y-111724085D01*
X258682754Y-111756243D01*
X258737995Y-111926257D01*
X258748444Y-111958414D01*
X258844951Y-112147820D01*
X258969890Y-112319786D01*
X259120213Y-112470109D01*
X259292182Y-112595050D01*
X259300946Y-112599516D01*
X259351742Y-112647491D01*
X259368536Y-112715312D01*
X259345998Y-112781447D01*
X259300946Y-112820484D01*
X259292182Y-112824949D01*
X259120213Y-112949890D01*
X258969890Y-113100213D01*
X258844951Y-113272179D01*
X258748444Y-113461585D01*
X258682753Y-113663760D01*
X258649500Y-113873713D01*
X258649500Y-114086286D01*
X258677660Y-114264085D01*
X258682754Y-114296243D01*
X258737995Y-114466257D01*
X258748444Y-114498414D01*
X258844951Y-114687820D01*
X258969890Y-114859786D01*
X259120213Y-115010109D01*
X259292182Y-115135050D01*
X259300946Y-115139516D01*
X259351742Y-115187491D01*
X259368536Y-115255312D01*
X259345998Y-115321447D01*
X259300946Y-115360484D01*
X259292182Y-115364949D01*
X259120213Y-115489890D01*
X258969890Y-115640213D01*
X258844951Y-115812179D01*
X258748444Y-116001585D01*
X258682753Y-116203760D01*
X258649500Y-116413713D01*
X258649500Y-116626286D01*
X258677660Y-116804085D01*
X258682754Y-116836243D01*
X258737995Y-117006257D01*
X258748444Y-117038414D01*
X258844951Y-117227820D01*
X258969890Y-117399786D01*
X259120213Y-117550109D01*
X259292182Y-117675050D01*
X259300946Y-117679516D01*
X259351742Y-117727491D01*
X259368536Y-117795312D01*
X259345998Y-117861447D01*
X259300946Y-117900484D01*
X259292182Y-117904949D01*
X259120213Y-118029890D01*
X258969890Y-118180213D01*
X258844951Y-118352179D01*
X258748444Y-118541585D01*
X258682753Y-118743760D01*
X258649500Y-118953713D01*
X258649500Y-119166286D01*
X258677660Y-119344085D01*
X258682754Y-119376243D01*
X258737995Y-119546257D01*
X258748444Y-119578414D01*
X258844951Y-119767820D01*
X258969890Y-119939786D01*
X259120213Y-120090109D01*
X259292182Y-120215050D01*
X259300946Y-120219516D01*
X259351742Y-120267491D01*
X259368536Y-120335312D01*
X259345998Y-120401447D01*
X259300946Y-120440484D01*
X259292182Y-120444949D01*
X259120213Y-120569890D01*
X258969890Y-120720213D01*
X258844951Y-120892179D01*
X258748444Y-121081585D01*
X258682753Y-121283760D01*
X258649500Y-121493713D01*
X258649500Y-121706286D01*
X258677660Y-121884085D01*
X258682754Y-121916243D01*
X258737995Y-122086257D01*
X258748444Y-122118414D01*
X258844951Y-122307820D01*
X258969890Y-122479786D01*
X259120213Y-122630109D01*
X259292182Y-122755050D01*
X259300946Y-122759516D01*
X259351742Y-122807491D01*
X259368536Y-122875312D01*
X259345998Y-122941447D01*
X259300946Y-122980484D01*
X259292182Y-122984949D01*
X259120213Y-123109890D01*
X258969890Y-123260213D01*
X258844951Y-123432179D01*
X258748444Y-123621585D01*
X258682753Y-123823760D01*
X258649500Y-124033713D01*
X258649500Y-124246286D01*
X258677660Y-124424085D01*
X258682754Y-124456243D01*
X258737995Y-124626257D01*
X258748444Y-124658414D01*
X258844951Y-124847820D01*
X258969890Y-125019786D01*
X259120213Y-125170109D01*
X259292182Y-125295050D01*
X259300946Y-125299516D01*
X259351742Y-125347491D01*
X259368536Y-125415312D01*
X259345998Y-125481447D01*
X259300946Y-125520484D01*
X259292182Y-125524949D01*
X259120213Y-125649890D01*
X258969890Y-125800213D01*
X258844951Y-125972179D01*
X258748444Y-126161585D01*
X258682753Y-126363760D01*
X258649500Y-126573713D01*
X258649500Y-126786286D01*
X258677660Y-126964085D01*
X258682754Y-126996243D01*
X258737995Y-127166257D01*
X258748444Y-127198414D01*
X258844951Y-127387820D01*
X258969890Y-127559786D01*
X259120213Y-127710109D01*
X259292182Y-127835050D01*
X259300946Y-127839516D01*
X259351742Y-127887491D01*
X259368536Y-127955312D01*
X259345998Y-128021447D01*
X259300946Y-128060484D01*
X259292182Y-128064949D01*
X259120213Y-128189890D01*
X258969890Y-128340213D01*
X258844951Y-128512179D01*
X258748444Y-128701585D01*
X258682753Y-128903760D01*
X258649500Y-129113713D01*
X258649500Y-129326286D01*
X258677660Y-129504085D01*
X258682754Y-129536243D01*
X258737995Y-129706257D01*
X258748444Y-129738414D01*
X258844951Y-129927820D01*
X258969890Y-130099786D01*
X259120213Y-130250109D01*
X259292182Y-130375050D01*
X259300946Y-130379516D01*
X259351742Y-130427491D01*
X259368536Y-130495312D01*
X259345998Y-130561447D01*
X259300946Y-130600484D01*
X259292182Y-130604949D01*
X259120213Y-130729890D01*
X258969890Y-130880213D01*
X258844951Y-131052179D01*
X258748444Y-131241585D01*
X258682753Y-131443760D01*
X258649500Y-131653713D01*
X258649500Y-131866286D01*
X258677660Y-132044085D01*
X258682754Y-132076243D01*
X258737995Y-132246257D01*
X258748444Y-132278414D01*
X258844951Y-132467820D01*
X258969890Y-132639786D01*
X259120213Y-132790109D01*
X259292182Y-132915050D01*
X259300946Y-132919516D01*
X259351742Y-132967491D01*
X259368536Y-133035312D01*
X259345998Y-133101447D01*
X259300946Y-133140484D01*
X259292182Y-133144949D01*
X259120213Y-133269890D01*
X258969890Y-133420213D01*
X258844951Y-133592179D01*
X258748444Y-133781585D01*
X258682753Y-133983760D01*
X258649500Y-134193713D01*
X258649500Y-134406286D01*
X258682753Y-134616239D01*
X258748444Y-134818414D01*
X258844951Y-135007820D01*
X258969890Y-135179786D01*
X259120213Y-135330109D01*
X259292182Y-135455050D01*
X259300946Y-135459516D01*
X259351742Y-135507491D01*
X259368536Y-135575312D01*
X259345998Y-135641447D01*
X259300946Y-135680484D01*
X259292182Y-135684949D01*
X259120213Y-135809890D01*
X258969890Y-135960213D01*
X258844951Y-136132179D01*
X258748444Y-136321585D01*
X258682753Y-136523760D01*
X258649500Y-136733713D01*
X258649500Y-136946286D01*
X258682753Y-137156239D01*
X258748444Y-137358414D01*
X258844951Y-137547820D01*
X258969890Y-137719786D01*
X259120213Y-137870109D01*
X259292179Y-137995048D01*
X259292181Y-137995049D01*
X259292184Y-137995051D01*
X259481588Y-138091557D01*
X259683757Y-138157246D01*
X259893713Y-138190500D01*
X259893714Y-138190500D01*
X260106286Y-138190500D01*
X260106287Y-138190500D01*
X260316243Y-138157246D01*
X260518412Y-138091557D01*
X260707816Y-137995051D01*
X260729789Y-137979086D01*
X260879786Y-137870109D01*
X260879788Y-137870106D01*
X260879792Y-137870104D01*
X261030104Y-137719792D01*
X261030106Y-137719788D01*
X261030109Y-137719786D01*
X261155048Y-137547820D01*
X261155047Y-137547820D01*
X261155051Y-137547816D01*
X261251557Y-137358412D01*
X261317246Y-137156243D01*
X261350500Y-136946287D01*
X261350500Y-136733713D01*
X261317246Y-136523757D01*
X261251557Y-136321588D01*
X261155051Y-136132184D01*
X261155049Y-136132181D01*
X261155048Y-136132179D01*
X261030109Y-135960213D01*
X260879786Y-135809890D01*
X260707820Y-135684951D01*
X260707115Y-135684591D01*
X260699054Y-135680485D01*
X260648259Y-135632512D01*
X260631463Y-135564692D01*
X260653999Y-135498556D01*
X260699054Y-135459515D01*
X260707816Y-135455051D01*
X260729789Y-135439086D01*
X260879786Y-135330109D01*
X260879788Y-135330106D01*
X260879792Y-135330104D01*
X261030104Y-135179792D01*
X261030106Y-135179788D01*
X261030109Y-135179786D01*
X261155048Y-135007820D01*
X261155047Y-135007820D01*
X261155051Y-135007816D01*
X261251557Y-134818412D01*
X261317246Y-134616243D01*
X261350500Y-134406287D01*
X261350500Y-134193713D01*
X261317246Y-133983757D01*
X261251557Y-133781588D01*
X261155051Y-133592184D01*
X261155049Y-133592181D01*
X261155048Y-133592179D01*
X261030109Y-133420213D01*
X260879786Y-133269890D01*
X260707820Y-133144951D01*
X260707115Y-133144591D01*
X260699054Y-133140485D01*
X260648259Y-133092512D01*
X260631463Y-133024692D01*
X260653999Y-132958556D01*
X260699054Y-132919515D01*
X260707816Y-132915051D01*
X260757796Y-132878739D01*
X260879786Y-132790109D01*
X260879788Y-132790106D01*
X260879792Y-132790104D01*
X261030104Y-132639792D01*
X261030106Y-132639788D01*
X261030109Y-132639786D01*
X261155048Y-132467820D01*
X261155047Y-132467820D01*
X261155051Y-132467816D01*
X261251557Y-132278412D01*
X261317246Y-132076243D01*
X261350500Y-131866287D01*
X261350500Y-131653713D01*
X261317246Y-131443757D01*
X261251557Y-131241588D01*
X261155051Y-131052184D01*
X261155049Y-131052181D01*
X261155048Y-131052179D01*
X261030109Y-130880213D01*
X260879786Y-130729890D01*
X260707820Y-130604951D01*
X260707115Y-130604591D01*
X260699054Y-130600485D01*
X260648259Y-130552512D01*
X260631463Y-130484692D01*
X260653999Y-130418556D01*
X260699054Y-130379515D01*
X260707816Y-130375051D01*
X260757796Y-130338739D01*
X260879786Y-130250109D01*
X260879788Y-130250106D01*
X260879792Y-130250104D01*
X261030104Y-130099792D01*
X261030106Y-130099788D01*
X261030109Y-130099786D01*
X261155048Y-129927820D01*
X261155047Y-129927820D01*
X261155051Y-129927816D01*
X261251557Y-129738412D01*
X261317246Y-129536243D01*
X261350500Y-129326287D01*
X261350500Y-129113713D01*
X261317246Y-128903757D01*
X261251557Y-128701588D01*
X261155051Y-128512184D01*
X261155049Y-128512181D01*
X261155048Y-128512179D01*
X261030109Y-128340213D01*
X260879786Y-128189890D01*
X260707820Y-128064951D01*
X260707115Y-128064591D01*
X260699054Y-128060485D01*
X260648259Y-128012512D01*
X260631463Y-127944692D01*
X260653999Y-127878556D01*
X260699054Y-127839515D01*
X260707816Y-127835051D01*
X260757796Y-127798739D01*
X260879786Y-127710109D01*
X260879788Y-127710106D01*
X260879792Y-127710104D01*
X261030104Y-127559792D01*
X261030106Y-127559788D01*
X261030109Y-127559786D01*
X261155048Y-127387820D01*
X261155047Y-127387820D01*
X261155051Y-127387816D01*
X261251557Y-127198412D01*
X261317246Y-126996243D01*
X261350500Y-126786287D01*
X261350500Y-126573713D01*
X261317246Y-126363757D01*
X261251557Y-126161588D01*
X261155051Y-125972184D01*
X261155049Y-125972181D01*
X261155048Y-125972179D01*
X261030109Y-125800213D01*
X260879786Y-125649890D01*
X260707820Y-125524951D01*
X260707115Y-125524591D01*
X260699054Y-125520485D01*
X260648259Y-125472512D01*
X260631463Y-125404692D01*
X260653999Y-125338556D01*
X260699054Y-125299515D01*
X260707816Y-125295051D01*
X260757796Y-125258739D01*
X260879786Y-125170109D01*
X260879788Y-125170106D01*
X260879792Y-125170104D01*
X261030104Y-125019792D01*
X261030106Y-125019788D01*
X261030109Y-125019786D01*
X261155048Y-124847820D01*
X261155047Y-124847820D01*
X261155051Y-124847816D01*
X261251557Y-124658412D01*
X261317246Y-124456243D01*
X261350500Y-124246287D01*
X261350500Y-124033713D01*
X261317246Y-123823757D01*
X261251557Y-123621588D01*
X261155051Y-123432184D01*
X261155049Y-123432181D01*
X261155048Y-123432179D01*
X261030109Y-123260213D01*
X260879786Y-123109890D01*
X260707820Y-122984951D01*
X260707115Y-122984591D01*
X260699054Y-122980485D01*
X260648259Y-122932512D01*
X260631463Y-122864692D01*
X260653999Y-122798556D01*
X260699054Y-122759515D01*
X260707816Y-122755051D01*
X260757796Y-122718739D01*
X260879786Y-122630109D01*
X260879788Y-122630106D01*
X260879792Y-122630104D01*
X261030104Y-122479792D01*
X261030106Y-122479788D01*
X261030109Y-122479786D01*
X261155048Y-122307820D01*
X261155047Y-122307820D01*
X261155051Y-122307816D01*
X261251557Y-122118412D01*
X261317246Y-121916243D01*
X261350500Y-121706287D01*
X261350500Y-121493713D01*
X261317246Y-121283757D01*
X261251557Y-121081588D01*
X261155051Y-120892184D01*
X261155049Y-120892181D01*
X261155048Y-120892179D01*
X261030109Y-120720213D01*
X260879786Y-120569890D01*
X260707820Y-120444951D01*
X260707115Y-120444591D01*
X260699054Y-120440485D01*
X260648259Y-120392512D01*
X260631463Y-120324692D01*
X260653999Y-120258556D01*
X260699054Y-120219515D01*
X260707816Y-120215051D01*
X260757796Y-120178739D01*
X260879786Y-120090109D01*
X260879788Y-120090106D01*
X260879792Y-120090104D01*
X261030104Y-119939792D01*
X261030106Y-119939788D01*
X261030109Y-119939786D01*
X261155048Y-119767820D01*
X261155047Y-119767820D01*
X261155051Y-119767816D01*
X261251557Y-119578412D01*
X261317246Y-119376243D01*
X261350500Y-119166287D01*
X261350500Y-118953713D01*
X261317246Y-118743757D01*
X261251557Y-118541588D01*
X261155051Y-118352184D01*
X261155049Y-118352181D01*
X261155048Y-118352179D01*
X261030109Y-118180213D01*
X260879786Y-118029890D01*
X260707820Y-117904951D01*
X260707115Y-117904591D01*
X260699054Y-117900485D01*
X260648259Y-117852512D01*
X260631463Y-117784692D01*
X260653999Y-117718556D01*
X260699054Y-117679515D01*
X260707816Y-117675051D01*
X260757796Y-117638739D01*
X260879786Y-117550109D01*
X260879788Y-117550106D01*
X260879792Y-117550104D01*
X261030104Y-117399792D01*
X261030106Y-117399788D01*
X261030109Y-117399786D01*
X261155048Y-117227820D01*
X261155047Y-117227820D01*
X261155051Y-117227816D01*
X261251557Y-117038412D01*
X261317246Y-116836243D01*
X261350500Y-116626287D01*
X261350500Y-116413713D01*
X261317246Y-116203757D01*
X261251557Y-116001588D01*
X261155051Y-115812184D01*
X261155049Y-115812181D01*
X261155048Y-115812179D01*
X261030109Y-115640213D01*
X260879786Y-115489890D01*
X260707820Y-115364951D01*
X260707115Y-115364591D01*
X260699054Y-115360485D01*
X260648259Y-115312512D01*
X260631463Y-115244692D01*
X260653999Y-115178556D01*
X260699054Y-115139515D01*
X260707816Y-115135051D01*
X260757796Y-115098739D01*
X260879786Y-115010109D01*
X260879788Y-115010106D01*
X260879792Y-115010104D01*
X261030104Y-114859792D01*
X261030106Y-114859788D01*
X261030109Y-114859786D01*
X261155048Y-114687820D01*
X261155047Y-114687820D01*
X261155051Y-114687816D01*
X261251557Y-114498412D01*
X261317246Y-114296243D01*
X261350500Y-114086287D01*
X261350500Y-113873713D01*
X261317246Y-113663757D01*
X261251557Y-113461588D01*
X261155051Y-113272184D01*
X261155049Y-113272181D01*
X261155048Y-113272179D01*
X261030109Y-113100213D01*
X260879786Y-112949890D01*
X260707820Y-112824951D01*
X260707115Y-112824591D01*
X260699054Y-112820485D01*
X260648259Y-112772512D01*
X260631463Y-112704692D01*
X260653999Y-112638556D01*
X260699054Y-112599515D01*
X260707816Y-112595051D01*
X260757796Y-112558739D01*
X260879786Y-112470109D01*
X260879788Y-112470106D01*
X260879792Y-112470104D01*
X261030104Y-112319792D01*
X261030106Y-112319788D01*
X261030109Y-112319786D01*
X261155048Y-112147820D01*
X261155047Y-112147820D01*
X261155051Y-112147816D01*
X261251557Y-111958412D01*
X261317246Y-111756243D01*
X261350500Y-111546287D01*
X261350500Y-111333713D01*
X261317246Y-111123757D01*
X261251557Y-110921588D01*
X261155051Y-110732184D01*
X261155049Y-110732181D01*
X261155048Y-110732179D01*
X261030109Y-110560213D01*
X260916569Y-110446673D01*
X260883084Y-110385350D01*
X260888068Y-110315658D01*
X260929940Y-110259725D01*
X260960915Y-110242810D01*
X261092331Y-110193796D01*
X261207546Y-110107546D01*
X261293796Y-109992331D01*
X261344091Y-109857483D01*
X261350500Y-109797873D01*
X261350499Y-108002128D01*
X261344091Y-107942517D01*
X261340474Y-107932820D01*
X261293797Y-107807671D01*
X261293793Y-107807664D01*
X261207547Y-107692455D01*
X261207544Y-107692452D01*
X261092335Y-107606206D01*
X261092328Y-107606202D01*
X260957482Y-107555908D01*
X260957483Y-107555908D01*
X260897883Y-107549501D01*
X260897881Y-107549500D01*
X260897873Y-107549500D01*
X260897864Y-107549500D01*
X259102129Y-107549500D01*
X259102123Y-107549501D01*
X259042516Y-107555908D01*
X258907671Y-107606202D01*
X258907664Y-107606206D01*
X258792455Y-107692452D01*
X258792452Y-107692455D01*
X258706206Y-107807664D01*
X258706202Y-107807671D01*
X258655908Y-107942517D01*
X258649501Y-108002116D01*
X258649501Y-108002123D01*
X258649500Y-108002135D01*
X237850499Y-108002135D01*
X237850499Y-108002128D01*
X237844091Y-107942517D01*
X237840474Y-107932820D01*
X237793797Y-107807671D01*
X237793793Y-107807664D01*
X237707547Y-107692455D01*
X237707544Y-107692452D01*
X237592335Y-107606206D01*
X237592328Y-107606202D01*
X237457482Y-107555908D01*
X237457483Y-107555908D01*
X237397883Y-107549501D01*
X237397881Y-107549500D01*
X237397873Y-107549500D01*
X237397864Y-107549500D01*
X235602129Y-107549500D01*
X235602123Y-107549501D01*
X235542516Y-107555908D01*
X235407671Y-107606202D01*
X235407664Y-107606206D01*
X235292455Y-107692452D01*
X235292452Y-107692455D01*
X235206206Y-107807664D01*
X235206202Y-107807671D01*
X235155908Y-107942517D01*
X235149501Y-108002116D01*
X235149501Y-108002123D01*
X235149500Y-108002135D01*
X175669688Y-108002135D01*
X175713003Y-107942517D01*
X175720051Y-107932816D01*
X175816557Y-107743412D01*
X175882246Y-107541243D01*
X175915500Y-107331287D01*
X175915500Y-107118713D01*
X175882246Y-106908757D01*
X175816557Y-106706588D01*
X175720051Y-106517184D01*
X175720049Y-106517181D01*
X175720048Y-106517179D01*
X175595109Y-106345213D01*
X175444786Y-106194890D01*
X175272820Y-106069951D01*
X175083414Y-105973444D01*
X175083413Y-105973443D01*
X175083412Y-105973443D01*
X174881243Y-105907754D01*
X174881241Y-105907753D01*
X174881240Y-105907753D01*
X174719957Y-105882208D01*
X174671287Y-105874500D01*
X174458713Y-105874500D01*
X174410042Y-105882208D01*
X174248760Y-105907753D01*
X174046585Y-105973444D01*
X173857179Y-106069951D01*
X173685213Y-106194890D01*
X173534890Y-106345213D01*
X173409949Y-106517182D01*
X173405484Y-106525946D01*
X173357509Y-106576742D01*
X173289688Y-106593536D01*
X173223553Y-106570998D01*
X173184516Y-106525946D01*
X173180050Y-106517182D01*
X173055109Y-106345213D01*
X172904786Y-106194890D01*
X172732820Y-106069951D01*
X172543414Y-105973444D01*
X172543413Y-105973443D01*
X172543412Y-105973443D01*
X172341243Y-105907754D01*
X172341241Y-105907753D01*
X172341240Y-105907753D01*
X172179957Y-105882208D01*
X172131287Y-105874500D01*
X171918713Y-105874500D01*
X171870042Y-105882208D01*
X171708760Y-105907753D01*
X171506585Y-105973444D01*
X171317179Y-106069951D01*
X171145213Y-106194890D01*
X170994890Y-106345213D01*
X170869949Y-106517182D01*
X170865484Y-106525946D01*
X170817509Y-106576742D01*
X170749688Y-106593536D01*
X170683553Y-106570998D01*
X170644516Y-106525946D01*
X170640050Y-106517182D01*
X170515109Y-106345213D01*
X170364786Y-106194890D01*
X170192820Y-106069951D01*
X170003414Y-105973444D01*
X170003413Y-105973443D01*
X170003412Y-105973443D01*
X169801243Y-105907754D01*
X169801241Y-105907753D01*
X169801240Y-105907753D01*
X169639957Y-105882208D01*
X169591287Y-105874500D01*
X169378713Y-105874500D01*
X169330042Y-105882208D01*
X169168760Y-105907753D01*
X168966585Y-105973444D01*
X168777179Y-106069951D01*
X168605213Y-106194890D01*
X168454890Y-106345213D01*
X168329949Y-106517182D01*
X168325484Y-106525946D01*
X168277509Y-106576742D01*
X168209688Y-106593536D01*
X168143553Y-106570998D01*
X168104516Y-106525946D01*
X168100050Y-106517182D01*
X167975109Y-106345213D01*
X167824786Y-106194890D01*
X167652820Y-106069951D01*
X167463414Y-105973444D01*
X167463413Y-105973443D01*
X167463412Y-105973443D01*
X167261243Y-105907754D01*
X167261241Y-105907753D01*
X167261240Y-105907753D01*
X167099957Y-105882208D01*
X167051287Y-105874500D01*
X166838713Y-105874500D01*
X166790042Y-105882208D01*
X166628760Y-105907753D01*
X166426585Y-105973444D01*
X166237179Y-106069951D01*
X166065213Y-106194890D01*
X165914890Y-106345213D01*
X165789949Y-106517182D01*
X165785484Y-106525946D01*
X165737509Y-106576742D01*
X165669688Y-106593536D01*
X165603553Y-106570998D01*
X165564516Y-106525946D01*
X165560050Y-106517182D01*
X165435109Y-106345213D01*
X165284786Y-106194890D01*
X165112820Y-106069951D01*
X164923414Y-105973444D01*
X164923413Y-105973443D01*
X164923412Y-105973443D01*
X164721243Y-105907754D01*
X164721241Y-105907753D01*
X164721240Y-105907753D01*
X164559957Y-105882208D01*
X164511287Y-105874500D01*
X164298713Y-105874500D01*
X164250042Y-105882208D01*
X164088760Y-105907753D01*
X163886585Y-105973444D01*
X163697179Y-106069951D01*
X163525213Y-106194890D01*
X163374890Y-106345213D01*
X163249949Y-106517182D01*
X163245484Y-106525946D01*
X163197509Y-106576742D01*
X163129688Y-106593536D01*
X163063553Y-106570998D01*
X163024516Y-106525946D01*
X163020050Y-106517182D01*
X162895109Y-106345213D01*
X162744786Y-106194890D01*
X162572820Y-106069951D01*
X162383414Y-105973444D01*
X162383413Y-105973443D01*
X162383412Y-105973443D01*
X162181243Y-105907754D01*
X162181241Y-105907753D01*
X162181240Y-105907753D01*
X162019957Y-105882208D01*
X161971287Y-105874500D01*
X161758713Y-105874500D01*
X161710042Y-105882208D01*
X161548760Y-105907753D01*
X161346585Y-105973444D01*
X161157179Y-106069951D01*
X160985215Y-106194889D01*
X160871673Y-106308431D01*
X160810350Y-106341915D01*
X160740658Y-106336931D01*
X160684725Y-106295059D01*
X160667810Y-106264082D01*
X160618797Y-106132671D01*
X160618793Y-106132664D01*
X160532547Y-106017455D01*
X160532544Y-106017452D01*
X160417335Y-105931206D01*
X160417328Y-105931202D01*
X160282482Y-105880908D01*
X160282483Y-105880908D01*
X160222883Y-105874501D01*
X160222881Y-105874500D01*
X160222873Y-105874500D01*
X160222864Y-105874500D01*
X158427129Y-105874500D01*
X158427123Y-105874501D01*
X158367516Y-105880908D01*
X158232671Y-105931202D01*
X158232664Y-105931206D01*
X158117455Y-106017452D01*
X158117452Y-106017455D01*
X158031206Y-106132664D01*
X158031202Y-106132671D01*
X157980908Y-106267517D01*
X157974501Y-106327116D01*
X157974500Y-106327135D01*
X152500500Y-106327135D01*
X152500500Y-103044635D01*
X187692000Y-103044635D01*
X187692000Y-104840370D01*
X187692001Y-104840376D01*
X187698408Y-104899983D01*
X187748702Y-105034828D01*
X187748706Y-105034835D01*
X187834952Y-105150044D01*
X187834955Y-105150047D01*
X187950164Y-105236293D01*
X187950171Y-105236297D01*
X188085017Y-105286591D01*
X188085016Y-105286591D01*
X188091944Y-105287335D01*
X188144627Y-105293000D01*
X189940372Y-105292999D01*
X189999983Y-105286591D01*
X190134831Y-105236296D01*
X190250046Y-105150046D01*
X190336296Y-105034831D01*
X190385310Y-104903416D01*
X190427181Y-104847484D01*
X190492645Y-104823066D01*
X190560918Y-104837917D01*
X190589173Y-104859069D01*
X190702713Y-104972609D01*
X190874679Y-105097548D01*
X190874681Y-105097549D01*
X190874684Y-105097551D01*
X191064088Y-105194057D01*
X191266257Y-105259746D01*
X191476213Y-105293000D01*
X191476214Y-105293000D01*
X191688786Y-105293000D01*
X191688787Y-105293000D01*
X191898743Y-105259746D01*
X192100912Y-105194057D01*
X192290316Y-105097551D01*
X192376638Y-105034835D01*
X192462286Y-104972609D01*
X192462288Y-104972606D01*
X192462292Y-104972604D01*
X192612604Y-104822292D01*
X192612606Y-104822288D01*
X192612609Y-104822286D01*
X192737548Y-104650320D01*
X192737547Y-104650320D01*
X192737551Y-104650316D01*
X192742014Y-104641554D01*
X192789988Y-104590759D01*
X192857808Y-104573963D01*
X192923944Y-104596499D01*
X192962986Y-104641556D01*
X192967451Y-104650320D01*
X193092390Y-104822286D01*
X193242713Y-104972609D01*
X193414679Y-105097548D01*
X193414681Y-105097549D01*
X193414684Y-105097551D01*
X193604088Y-105194057D01*
X193806257Y-105259746D01*
X194016213Y-105293000D01*
X194016214Y-105293000D01*
X194228786Y-105293000D01*
X194228787Y-105293000D01*
X194438743Y-105259746D01*
X194640912Y-105194057D01*
X194830316Y-105097551D01*
X194916638Y-105034835D01*
X195002286Y-104972609D01*
X195002288Y-104972606D01*
X195002292Y-104972604D01*
X195152604Y-104822292D01*
X195152606Y-104822288D01*
X195152609Y-104822286D01*
X195277548Y-104650320D01*
X195277547Y-104650320D01*
X195277551Y-104650316D01*
X195282014Y-104641554D01*
X195329988Y-104590759D01*
X195397808Y-104573963D01*
X195463944Y-104596499D01*
X195502986Y-104641556D01*
X195507451Y-104650320D01*
X195632390Y-104822286D01*
X195782713Y-104972609D01*
X195954679Y-105097548D01*
X195954681Y-105097549D01*
X195954684Y-105097551D01*
X196144088Y-105194057D01*
X196346257Y-105259746D01*
X196556213Y-105293000D01*
X196556214Y-105293000D01*
X196768786Y-105293000D01*
X196768787Y-105293000D01*
X196978743Y-105259746D01*
X197180912Y-105194057D01*
X197370316Y-105097551D01*
X197456638Y-105034835D01*
X197542286Y-104972609D01*
X197542288Y-104972606D01*
X197542292Y-104972604D01*
X197692604Y-104822292D01*
X197692606Y-104822288D01*
X197692609Y-104822286D01*
X197817548Y-104650320D01*
X197817547Y-104650320D01*
X197817551Y-104650316D01*
X197822014Y-104641554D01*
X197869988Y-104590759D01*
X197937808Y-104573963D01*
X198003944Y-104596499D01*
X198042986Y-104641556D01*
X198047451Y-104650320D01*
X198172390Y-104822286D01*
X198322713Y-104972609D01*
X198494679Y-105097548D01*
X198494681Y-105097549D01*
X198494684Y-105097551D01*
X198684088Y-105194057D01*
X198886257Y-105259746D01*
X199096213Y-105293000D01*
X199096214Y-105293000D01*
X199308786Y-105293000D01*
X199308787Y-105293000D01*
X199518743Y-105259746D01*
X199720912Y-105194057D01*
X199910316Y-105097551D01*
X199996638Y-105034835D01*
X200082286Y-104972609D01*
X200082288Y-104972606D01*
X200082292Y-104972604D01*
X200232604Y-104822292D01*
X200232606Y-104822288D01*
X200232609Y-104822286D01*
X200357548Y-104650320D01*
X200357547Y-104650320D01*
X200357551Y-104650316D01*
X200362014Y-104641554D01*
X200409988Y-104590759D01*
X200477808Y-104573963D01*
X200543944Y-104596499D01*
X200582986Y-104641556D01*
X200587451Y-104650320D01*
X200712390Y-104822286D01*
X200862713Y-104972609D01*
X201034679Y-105097548D01*
X201034681Y-105097549D01*
X201034684Y-105097551D01*
X201224088Y-105194057D01*
X201426257Y-105259746D01*
X201636213Y-105293000D01*
X201636214Y-105293000D01*
X201848786Y-105293000D01*
X201848787Y-105293000D01*
X202058743Y-105259746D01*
X202260912Y-105194057D01*
X202450316Y-105097551D01*
X202536638Y-105034835D01*
X202622286Y-104972609D01*
X202622288Y-104972606D01*
X202622292Y-104972604D01*
X202772604Y-104822292D01*
X202772606Y-104822288D01*
X202772609Y-104822286D01*
X202897548Y-104650320D01*
X202897547Y-104650320D01*
X202897551Y-104650316D01*
X202902014Y-104641554D01*
X202949988Y-104590759D01*
X203017808Y-104573963D01*
X203083944Y-104596499D01*
X203122986Y-104641556D01*
X203127451Y-104650320D01*
X203252390Y-104822286D01*
X203402713Y-104972609D01*
X203574679Y-105097548D01*
X203574681Y-105097549D01*
X203574684Y-105097551D01*
X203764088Y-105194057D01*
X203966257Y-105259746D01*
X204176213Y-105293000D01*
X204176214Y-105293000D01*
X204388786Y-105293000D01*
X204388787Y-105293000D01*
X204598743Y-105259746D01*
X204800912Y-105194057D01*
X204990316Y-105097551D01*
X205076638Y-105034835D01*
X205162286Y-104972609D01*
X205162288Y-104972606D01*
X205162292Y-104972604D01*
X205312604Y-104822292D01*
X205312606Y-104822288D01*
X205312609Y-104822286D01*
X205437548Y-104650320D01*
X205437547Y-104650320D01*
X205437551Y-104650316D01*
X205442014Y-104641554D01*
X205489988Y-104590759D01*
X205557808Y-104573963D01*
X205623944Y-104596499D01*
X205662986Y-104641556D01*
X205667451Y-104650320D01*
X205792390Y-104822286D01*
X205942713Y-104972609D01*
X206114679Y-105097548D01*
X206114681Y-105097549D01*
X206114684Y-105097551D01*
X206304088Y-105194057D01*
X206506257Y-105259746D01*
X206716213Y-105293000D01*
X206716214Y-105293000D01*
X206928786Y-105293000D01*
X206928787Y-105293000D01*
X207138743Y-105259746D01*
X207340912Y-105194057D01*
X207530316Y-105097551D01*
X207616638Y-105034835D01*
X207702286Y-104972609D01*
X207702288Y-104972606D01*
X207702292Y-104972604D01*
X207852604Y-104822292D01*
X207852606Y-104822288D01*
X207852609Y-104822286D01*
X207977548Y-104650320D01*
X207977547Y-104650320D01*
X207977551Y-104650316D01*
X207982014Y-104641554D01*
X208029988Y-104590759D01*
X208097808Y-104573963D01*
X208163944Y-104596499D01*
X208202986Y-104641556D01*
X208207451Y-104650320D01*
X208332390Y-104822286D01*
X208482713Y-104972609D01*
X208654679Y-105097548D01*
X208654681Y-105097549D01*
X208654684Y-105097551D01*
X208844088Y-105194057D01*
X209046257Y-105259746D01*
X209256213Y-105293000D01*
X209256214Y-105293000D01*
X209468786Y-105293000D01*
X209468787Y-105293000D01*
X209678743Y-105259746D01*
X209880912Y-105194057D01*
X210070316Y-105097551D01*
X210156638Y-105034835D01*
X210242286Y-104972609D01*
X210242288Y-104972606D01*
X210242292Y-104972604D01*
X210392604Y-104822292D01*
X210392606Y-104822288D01*
X210392609Y-104822286D01*
X210517548Y-104650320D01*
X210517547Y-104650320D01*
X210517551Y-104650316D01*
X210522014Y-104641554D01*
X210569988Y-104590759D01*
X210637808Y-104573963D01*
X210703944Y-104596499D01*
X210742986Y-104641556D01*
X210747451Y-104650320D01*
X210872390Y-104822286D01*
X211022713Y-104972609D01*
X211194679Y-105097548D01*
X211194681Y-105097549D01*
X211194684Y-105097551D01*
X211384088Y-105194057D01*
X211586257Y-105259746D01*
X211796213Y-105293000D01*
X211796214Y-105293000D01*
X212008786Y-105293000D01*
X212008787Y-105293000D01*
X212218743Y-105259746D01*
X212420912Y-105194057D01*
X212610316Y-105097551D01*
X212696638Y-105034835D01*
X212782286Y-104972609D01*
X212782288Y-104972606D01*
X212782292Y-104972604D01*
X212932604Y-104822292D01*
X212932606Y-104822288D01*
X212932609Y-104822286D01*
X213057548Y-104650320D01*
X213057547Y-104650320D01*
X213057551Y-104650316D01*
X213062014Y-104641554D01*
X213109988Y-104590759D01*
X213177808Y-104573963D01*
X213243944Y-104596499D01*
X213282986Y-104641556D01*
X213287451Y-104650320D01*
X213412390Y-104822286D01*
X213562713Y-104972609D01*
X213734679Y-105097548D01*
X213734681Y-105097549D01*
X213734684Y-105097551D01*
X213924088Y-105194057D01*
X214126257Y-105259746D01*
X214336213Y-105293000D01*
X214336214Y-105293000D01*
X214548786Y-105293000D01*
X214548787Y-105293000D01*
X214758743Y-105259746D01*
X214960912Y-105194057D01*
X215150316Y-105097551D01*
X215236638Y-105034835D01*
X215322286Y-104972609D01*
X215322288Y-104972606D01*
X215322292Y-104972604D01*
X215472604Y-104822292D01*
X215472606Y-104822288D01*
X215472609Y-104822286D01*
X215597548Y-104650320D01*
X215597547Y-104650320D01*
X215597551Y-104650316D01*
X215602014Y-104641554D01*
X215649988Y-104590759D01*
X215717808Y-104573963D01*
X215783944Y-104596499D01*
X215822986Y-104641556D01*
X215827451Y-104650320D01*
X215952390Y-104822286D01*
X216102713Y-104972609D01*
X216274679Y-105097548D01*
X216274681Y-105097549D01*
X216274684Y-105097551D01*
X216464088Y-105194057D01*
X216666257Y-105259746D01*
X216876213Y-105293000D01*
X216876214Y-105293000D01*
X217088786Y-105293000D01*
X217088787Y-105293000D01*
X217298743Y-105259746D01*
X217500912Y-105194057D01*
X217690316Y-105097551D01*
X217776638Y-105034835D01*
X217862286Y-104972609D01*
X217862288Y-104972606D01*
X217862292Y-104972604D01*
X218012604Y-104822292D01*
X218012606Y-104822288D01*
X218012609Y-104822286D01*
X218137548Y-104650320D01*
X218137547Y-104650320D01*
X218137551Y-104650316D01*
X218142014Y-104641554D01*
X218189988Y-104590759D01*
X218257808Y-104573963D01*
X218323944Y-104596499D01*
X218362986Y-104641556D01*
X218367451Y-104650320D01*
X218492390Y-104822286D01*
X218642713Y-104972609D01*
X218814679Y-105097548D01*
X218814681Y-105097549D01*
X218814684Y-105097551D01*
X219004088Y-105194057D01*
X219206257Y-105259746D01*
X219416213Y-105293000D01*
X219416214Y-105293000D01*
X219628786Y-105293000D01*
X219628787Y-105293000D01*
X219838743Y-105259746D01*
X220040912Y-105194057D01*
X220230316Y-105097551D01*
X220316638Y-105034835D01*
X220402286Y-104972609D01*
X220402288Y-104972606D01*
X220402292Y-104972604D01*
X220552604Y-104822292D01*
X220552606Y-104822288D01*
X220552609Y-104822286D01*
X220677548Y-104650320D01*
X220677547Y-104650320D01*
X220677551Y-104650316D01*
X220682014Y-104641554D01*
X220729988Y-104590759D01*
X220797808Y-104573963D01*
X220863944Y-104596499D01*
X220902986Y-104641556D01*
X220907451Y-104650320D01*
X221032390Y-104822286D01*
X221182713Y-104972609D01*
X221354679Y-105097548D01*
X221354681Y-105097549D01*
X221354684Y-105097551D01*
X221544088Y-105194057D01*
X221746257Y-105259746D01*
X221956213Y-105293000D01*
X221956214Y-105293000D01*
X222168786Y-105293000D01*
X222168787Y-105293000D01*
X222378743Y-105259746D01*
X222580912Y-105194057D01*
X222770316Y-105097551D01*
X222856638Y-105034835D01*
X222942286Y-104972609D01*
X222942288Y-104972606D01*
X222942292Y-104972604D01*
X223092604Y-104822292D01*
X223092606Y-104822288D01*
X223092609Y-104822286D01*
X223217548Y-104650320D01*
X223217547Y-104650320D01*
X223217551Y-104650316D01*
X223314057Y-104460912D01*
X223379746Y-104258743D01*
X223413000Y-104048787D01*
X223413000Y-103836213D01*
X223379746Y-103626257D01*
X223314057Y-103424088D01*
X223217551Y-103234684D01*
X223217549Y-103234681D01*
X223217548Y-103234679D01*
X223092609Y-103062713D01*
X222942286Y-102912390D01*
X222770320Y-102787451D01*
X222580914Y-102690944D01*
X222580913Y-102690943D01*
X222580912Y-102690943D01*
X222378743Y-102625254D01*
X222378741Y-102625253D01*
X222378740Y-102625253D01*
X222217457Y-102599708D01*
X222168787Y-102592000D01*
X221956213Y-102592000D01*
X221907542Y-102599708D01*
X221746260Y-102625253D01*
X221544085Y-102690944D01*
X221354679Y-102787451D01*
X221182713Y-102912390D01*
X221032390Y-103062713D01*
X220907449Y-103234682D01*
X220902984Y-103243446D01*
X220855009Y-103294242D01*
X220787188Y-103311036D01*
X220721053Y-103288498D01*
X220682016Y-103243446D01*
X220677550Y-103234682D01*
X220552609Y-103062713D01*
X220402286Y-102912390D01*
X220230320Y-102787451D01*
X220040914Y-102690944D01*
X220040913Y-102690943D01*
X220040912Y-102690943D01*
X219838743Y-102625254D01*
X219838741Y-102625253D01*
X219838740Y-102625253D01*
X219677457Y-102599708D01*
X219628787Y-102592000D01*
X219416213Y-102592000D01*
X219367542Y-102599708D01*
X219206260Y-102625253D01*
X219004085Y-102690944D01*
X218814679Y-102787451D01*
X218642713Y-102912390D01*
X218492390Y-103062713D01*
X218367449Y-103234682D01*
X218362984Y-103243446D01*
X218315009Y-103294242D01*
X218247188Y-103311036D01*
X218181053Y-103288498D01*
X218142016Y-103243446D01*
X218137550Y-103234682D01*
X218012609Y-103062713D01*
X217862286Y-102912390D01*
X217690320Y-102787451D01*
X217500914Y-102690944D01*
X217500913Y-102690943D01*
X217500912Y-102690943D01*
X217298743Y-102625254D01*
X217298741Y-102625253D01*
X217298740Y-102625253D01*
X217137457Y-102599708D01*
X217088787Y-102592000D01*
X216876213Y-102592000D01*
X216827542Y-102599708D01*
X216666260Y-102625253D01*
X216464085Y-102690944D01*
X216274679Y-102787451D01*
X216102713Y-102912390D01*
X215952390Y-103062713D01*
X215827449Y-103234682D01*
X215822984Y-103243446D01*
X215775009Y-103294242D01*
X215707188Y-103311036D01*
X215641053Y-103288498D01*
X215602016Y-103243446D01*
X215597550Y-103234682D01*
X215472609Y-103062713D01*
X215322286Y-102912390D01*
X215150320Y-102787451D01*
X214960914Y-102690944D01*
X214960913Y-102690943D01*
X214960912Y-102690943D01*
X214758743Y-102625254D01*
X214758741Y-102625253D01*
X214758740Y-102625253D01*
X214597457Y-102599708D01*
X214548787Y-102592000D01*
X214336213Y-102592000D01*
X214287542Y-102599708D01*
X214126260Y-102625253D01*
X213924085Y-102690944D01*
X213734679Y-102787451D01*
X213562713Y-102912390D01*
X213412390Y-103062713D01*
X213287449Y-103234682D01*
X213282984Y-103243446D01*
X213235009Y-103294242D01*
X213167188Y-103311036D01*
X213101053Y-103288498D01*
X213062016Y-103243446D01*
X213057550Y-103234682D01*
X212932609Y-103062713D01*
X212782286Y-102912390D01*
X212610320Y-102787451D01*
X212420914Y-102690944D01*
X212420913Y-102690943D01*
X212420912Y-102690943D01*
X212218743Y-102625254D01*
X212218741Y-102625253D01*
X212218740Y-102625253D01*
X212057457Y-102599708D01*
X212008787Y-102592000D01*
X211796213Y-102592000D01*
X211747542Y-102599708D01*
X211586260Y-102625253D01*
X211384085Y-102690944D01*
X211194679Y-102787451D01*
X211022713Y-102912390D01*
X210872390Y-103062713D01*
X210747449Y-103234682D01*
X210742984Y-103243446D01*
X210695009Y-103294242D01*
X210627188Y-103311036D01*
X210561053Y-103288498D01*
X210522016Y-103243446D01*
X210517550Y-103234682D01*
X210392609Y-103062713D01*
X210242286Y-102912390D01*
X210070320Y-102787451D01*
X209880914Y-102690944D01*
X209880913Y-102690943D01*
X209880912Y-102690943D01*
X209678743Y-102625254D01*
X209678741Y-102625253D01*
X209678740Y-102625253D01*
X209517457Y-102599708D01*
X209468787Y-102592000D01*
X209256213Y-102592000D01*
X209207542Y-102599708D01*
X209046260Y-102625253D01*
X208844085Y-102690944D01*
X208654679Y-102787451D01*
X208482713Y-102912390D01*
X208332390Y-103062713D01*
X208207449Y-103234682D01*
X208202984Y-103243446D01*
X208155009Y-103294242D01*
X208087188Y-103311036D01*
X208021053Y-103288498D01*
X207982016Y-103243446D01*
X207977550Y-103234682D01*
X207852609Y-103062713D01*
X207702286Y-102912390D01*
X207530320Y-102787451D01*
X207340914Y-102690944D01*
X207340913Y-102690943D01*
X207340912Y-102690943D01*
X207138743Y-102625254D01*
X207138741Y-102625253D01*
X207138740Y-102625253D01*
X206977457Y-102599708D01*
X206928787Y-102592000D01*
X206716213Y-102592000D01*
X206667542Y-102599708D01*
X206506260Y-102625253D01*
X206304085Y-102690944D01*
X206114679Y-102787451D01*
X205942713Y-102912390D01*
X205792390Y-103062713D01*
X205667449Y-103234682D01*
X205662984Y-103243446D01*
X205615009Y-103294242D01*
X205547188Y-103311036D01*
X205481053Y-103288498D01*
X205442016Y-103243446D01*
X205437550Y-103234682D01*
X205312609Y-103062713D01*
X205162286Y-102912390D01*
X204990320Y-102787451D01*
X204800914Y-102690944D01*
X204800913Y-102690943D01*
X204800912Y-102690943D01*
X204598743Y-102625254D01*
X204598741Y-102625253D01*
X204598740Y-102625253D01*
X204437457Y-102599708D01*
X204388787Y-102592000D01*
X204176213Y-102592000D01*
X204127542Y-102599708D01*
X203966260Y-102625253D01*
X203764085Y-102690944D01*
X203574679Y-102787451D01*
X203402713Y-102912390D01*
X203252390Y-103062713D01*
X203127449Y-103234682D01*
X203122984Y-103243446D01*
X203075009Y-103294242D01*
X203007188Y-103311036D01*
X202941053Y-103288498D01*
X202902016Y-103243446D01*
X202897550Y-103234682D01*
X202772609Y-103062713D01*
X202622286Y-102912390D01*
X202450320Y-102787451D01*
X202260914Y-102690944D01*
X202260913Y-102690943D01*
X202260912Y-102690943D01*
X202058743Y-102625254D01*
X202058741Y-102625253D01*
X202058740Y-102625253D01*
X201897457Y-102599708D01*
X201848787Y-102592000D01*
X201636213Y-102592000D01*
X201587542Y-102599708D01*
X201426260Y-102625253D01*
X201224085Y-102690944D01*
X201034679Y-102787451D01*
X200862713Y-102912390D01*
X200712390Y-103062713D01*
X200587449Y-103234682D01*
X200582984Y-103243446D01*
X200535009Y-103294242D01*
X200467188Y-103311036D01*
X200401053Y-103288498D01*
X200362016Y-103243446D01*
X200357550Y-103234682D01*
X200232609Y-103062713D01*
X200082286Y-102912390D01*
X199910320Y-102787451D01*
X199720914Y-102690944D01*
X199720913Y-102690943D01*
X199720912Y-102690943D01*
X199518743Y-102625254D01*
X199518741Y-102625253D01*
X199518740Y-102625253D01*
X199357457Y-102599708D01*
X199308787Y-102592000D01*
X199096213Y-102592000D01*
X199047542Y-102599708D01*
X198886260Y-102625253D01*
X198684085Y-102690944D01*
X198494679Y-102787451D01*
X198322713Y-102912390D01*
X198172390Y-103062713D01*
X198047449Y-103234682D01*
X198042984Y-103243446D01*
X197995009Y-103294242D01*
X197927188Y-103311036D01*
X197861053Y-103288498D01*
X197822016Y-103243446D01*
X197817550Y-103234682D01*
X197692609Y-103062713D01*
X197542286Y-102912390D01*
X197370320Y-102787451D01*
X197180914Y-102690944D01*
X197180913Y-102690943D01*
X197180912Y-102690943D01*
X196978743Y-102625254D01*
X196978741Y-102625253D01*
X196978740Y-102625253D01*
X196817457Y-102599708D01*
X196768787Y-102592000D01*
X196556213Y-102592000D01*
X196507542Y-102599708D01*
X196346260Y-102625253D01*
X196144085Y-102690944D01*
X195954679Y-102787451D01*
X195782713Y-102912390D01*
X195632390Y-103062713D01*
X195507449Y-103234682D01*
X195502984Y-103243446D01*
X195455009Y-103294242D01*
X195387188Y-103311036D01*
X195321053Y-103288498D01*
X195282016Y-103243446D01*
X195277550Y-103234682D01*
X195152609Y-103062713D01*
X195002286Y-102912390D01*
X194830320Y-102787451D01*
X194640914Y-102690944D01*
X194640913Y-102690943D01*
X194640912Y-102690943D01*
X194438743Y-102625254D01*
X194438741Y-102625253D01*
X194438740Y-102625253D01*
X194277457Y-102599708D01*
X194228787Y-102592000D01*
X194016213Y-102592000D01*
X193967542Y-102599708D01*
X193806260Y-102625253D01*
X193604085Y-102690944D01*
X193414679Y-102787451D01*
X193242713Y-102912390D01*
X193092390Y-103062713D01*
X192967449Y-103234682D01*
X192962984Y-103243446D01*
X192915009Y-103294242D01*
X192847188Y-103311036D01*
X192781053Y-103288498D01*
X192742016Y-103243446D01*
X192737550Y-103234682D01*
X192612609Y-103062713D01*
X192462286Y-102912390D01*
X192290320Y-102787451D01*
X192100914Y-102690944D01*
X192100913Y-102690943D01*
X192100912Y-102690943D01*
X191898743Y-102625254D01*
X191898741Y-102625253D01*
X191898740Y-102625253D01*
X191737457Y-102599708D01*
X191688787Y-102592000D01*
X191476213Y-102592000D01*
X191427542Y-102599708D01*
X191266260Y-102625253D01*
X191064085Y-102690944D01*
X190874679Y-102787451D01*
X190702715Y-102912389D01*
X190589173Y-103025931D01*
X190527850Y-103059415D01*
X190458158Y-103054431D01*
X190402225Y-103012559D01*
X190385310Y-102981582D01*
X190336297Y-102850171D01*
X190336293Y-102850164D01*
X190250047Y-102734955D01*
X190250044Y-102734952D01*
X190134835Y-102648706D01*
X190134828Y-102648702D01*
X189999982Y-102598408D01*
X189999983Y-102598408D01*
X189940383Y-102592001D01*
X189940381Y-102592000D01*
X189940373Y-102592000D01*
X189940364Y-102592000D01*
X188144629Y-102592000D01*
X188144623Y-102592001D01*
X188085016Y-102598408D01*
X187950171Y-102648702D01*
X187950164Y-102648706D01*
X187834955Y-102734952D01*
X187834952Y-102734955D01*
X187748706Y-102850164D01*
X187748702Y-102850171D01*
X187698408Y-102985017D01*
X187692001Y-103044616D01*
X187692000Y-103044635D01*
X152500500Y-103044635D01*
X152500500Y-99124500D01*
X152520185Y-99057461D01*
X152572989Y-99011706D01*
X152624500Y-99000500D01*
X266375500Y-99000500D01*
X266442539Y-99020185D01*
G37*
%TD.AperFunction*%
M02*
