%TF.GenerationSoftware,KiCad,Pcbnew,9.0.0*%
%TF.CreationDate,2026-04-05T21:21:32+02:00*%
%TF.ProjectId,BARBIE_PCB,42415242-4945-45f5-9043-422e6b696361,rev?*%
%TF.SameCoordinates,Original*%
%TF.FileFunction,Soldermask,Bot*%
%TF.FilePolarity,Negative*%
%FSLAX46Y46*%
G04 Gerber Fmt 4.6, Leading zero omitted, Abs format (unit mm)*
G04 Created by KiCad (PCBNEW 9.0.0) date 2026-04-05 21:21:32*
%MOMM*%
%LPD*%
G01*
G04 APERTURE LIST*
%ADD10O,1.700000X1.700000*%
%ADD11R,1.700000X1.700000*%
G04 APERTURE END LIST*
D10*
%TO.C,J6*%
X236500000Y-136840000D03*
X236500000Y-134300000D03*
X236500000Y-131760000D03*
X236500000Y-129220000D03*
X236500000Y-126680000D03*
X236500000Y-124140000D03*
X236500000Y-121600000D03*
X236500000Y-119060000D03*
X236500000Y-116520000D03*
X236500000Y-113980000D03*
X236500000Y-111440000D03*
D11*
X236500000Y-108900000D03*
%TD*%
D10*
%TO.C,J7*%
X260000000Y-136840000D03*
X260000000Y-134300000D03*
X260000000Y-131760000D03*
X260000000Y-129220000D03*
X260000000Y-126680000D03*
X260000000Y-124140000D03*
X260000000Y-121600000D03*
X260000000Y-119060000D03*
X260000000Y-116520000D03*
X260000000Y-113980000D03*
X260000000Y-111440000D03*
D11*
X260000000Y-108900000D03*
%TD*%
D10*
%TO.C,J3*%
X174690000Y-138725000D03*
X172150000Y-138725000D03*
X169610000Y-138725000D03*
X167070000Y-138725000D03*
X164530000Y-138725000D03*
X161990000Y-138725000D03*
D11*
X159450000Y-138725000D03*
%TD*%
%TO.C,J5*%
X159325000Y-107225000D03*
D10*
X161865000Y-107225000D03*
X164405000Y-107225000D03*
X166945000Y-107225000D03*
X169485000Y-107225000D03*
X172025000Y-107225000D03*
X174565000Y-107225000D03*
%TD*%
D11*
%TO.C,J4*%
X189122500Y-143942500D03*
D10*
X191662500Y-143942500D03*
X194202500Y-143942500D03*
X196742500Y-143942500D03*
X199282500Y-143942500D03*
X201822500Y-143942500D03*
X204362500Y-143942500D03*
X206902500Y-143942500D03*
X209442500Y-143942500D03*
X211982500Y-143942500D03*
X214522500Y-143942500D03*
X217062500Y-143942500D03*
X219602500Y-143942500D03*
X222142500Y-143942500D03*
%TD*%
D11*
%TO.C,J2*%
X221862500Y-135102500D03*
D10*
X221862500Y-132562500D03*
X221862500Y-130022500D03*
X221862500Y-127482500D03*
X221862500Y-124942500D03*
X221862500Y-122402500D03*
X221862500Y-119862500D03*
X221862500Y-117322500D03*
X221862500Y-114782500D03*
X221862500Y-112242500D03*
%TD*%
D11*
%TO.C,J1*%
X189042500Y-103942500D03*
D10*
X191582500Y-103942500D03*
X194122500Y-103942500D03*
X196662500Y-103942500D03*
X199202500Y-103942500D03*
X201742500Y-103942500D03*
X204282500Y-103942500D03*
X206822500Y-103942500D03*
X209362500Y-103942500D03*
X211902500Y-103942500D03*
X214442500Y-103942500D03*
X216982500Y-103942500D03*
X219522500Y-103942500D03*
X222062500Y-103942500D03*
%TD*%
M02*
