M48
; DRILL file {KiCad 9.0.0} date 2026-04-05T21:21:37+0200
; FORMAT={-:-/ absolute / metric / decimal}
; #@! TF.CreationDate,2026-04-05T21:21:37+02:00
; #@! TF.GenerationSoftware,Kicad,Pcbnew,9.0.0
; #@! TF.FileFunction,Plated,1,2,PTH
FMAT,2
METRIC
; #@! TA.AperFunction,Plated,PTH,ComponentDrill
T1C1.000
%
G90
G05
T1
X159.325Y-107.225
X159.45Y-138.725
X161.865Y-107.225
X161.99Y-138.725
X164.405Y-107.225
X164.53Y-138.725
X166.945Y-107.225
X167.07Y-138.725
X169.485Y-107.225
X169.61Y-138.725
X172.025Y-107.225
X172.15Y-138.725
X174.565Y-107.225
X174.69Y-138.725
X189.042Y-103.942
X189.123Y-143.942
X191.582Y-103.942
X191.662Y-143.942
X194.123Y-103.942
X194.202Y-143.942
X196.662Y-103.942
X196.742Y-143.942
X199.202Y-103.942
X199.282Y-143.942
X201.742Y-103.942
X201.822Y-143.942
X204.282Y-103.942
X204.362Y-143.942
X206.822Y-103.942
X206.903Y-143.942
X209.362Y-103.942
X209.442Y-143.942
X211.903Y-103.942
X211.982Y-143.942
X214.442Y-103.942
X214.522Y-143.942
X216.982Y-103.942
X217.062Y-143.942
X219.522Y-103.942
X219.602Y-143.942
X221.862Y-112.242
X221.862Y-114.782
X221.862Y-117.322
X221.862Y-119.862
X221.862Y-122.402
X221.862Y-124.942
X221.862Y-127.482
X221.862Y-130.023
X221.862Y-132.562
X221.862Y-135.102
X222.062Y-103.942
X222.142Y-143.942
X236.5Y-108.9
X236.5Y-111.44
X236.5Y-113.98
X236.5Y-116.52
X236.5Y-119.06
X236.5Y-121.6
X236.5Y-124.14
X236.5Y-126.68
X236.5Y-129.22
X236.5Y-131.76
X236.5Y-134.3
X236.5Y-136.84
X260.0Y-108.9
X260.0Y-111.44
X260.0Y-113.98
X260.0Y-116.52
X260.0Y-119.06
X260.0Y-121.6
X260.0Y-124.14
X260.0Y-126.68
X260.0Y-129.22
X260.0Y-131.76
X260.0Y-134.3
X260.0Y-136.84
M30
