%TF.GenerationSoftware,KiCad,Pcbnew,9.0.0*%
%TF.CreationDate,2026-04-05T21:21:31+02:00*%
%TF.ProjectId,BARBIE_PCB,42415242-4945-45f5-9043-422e6b696361,rev?*%
%TF.SameCoordinates,Original*%
%TF.FileFunction,Copper,L1,Top*%
%TF.FilePolarity,Positive*%
%FSLAX46Y46*%
G04 Gerber Fmt 4.6, Leading zero omitted, Abs format (unit mm)*
G04 Created by KiCad (PCBNEW 9.0.0) date 2026-04-05 21:21:31*
%MOMM*%
%LPD*%
G01*
G04 APERTURE LIST*
G04 Aperture macros list*
%AMRoundRect*
0 Rectangle with rounded corners*
0 $1 Rounding radius*
0 $2 $3 $4 $5 $6 $7 $8 $9 X,Y pos of 4 corners*
0 Add a 4 corners polygon primitive as box body*
4,1,4,$2,$3,$4,$5,$6,$7,$8,$9,$2,$3,0*
0 Add four circle primitives for the rounded corners*
1,1,$1+$1,$2,$3*
1,1,$1+$1,$4,$5*
1,1,$1+$1,$6,$7*
1,1,$1+$1,$8,$9*
0 Add four rect primitives between the rounded corners*
20,1,$1+$1,$2,$3,$4,$5,0*
20,1,$1+$1,$4,$5,$6,$7,0*
20,1,$1+$1,$6,$7,$8,$9,0*
20,1,$1+$1,$8,$9,$2,$3,0*%
G04 Aperture macros list end*
%TA.AperFunction,SMDPad,CuDef*%
%ADD10RoundRect,0.190500X0.444500X-1.534500X0.444500X1.534500X-0.444500X1.534500X-0.444500X-1.534500X0*%
%TD*%
%TA.AperFunction,SMDPad,CuDef*%
%ADD11RoundRect,0.180000X0.420000X-1.545000X0.420000X1.545000X-0.420000X1.545000X-0.420000X-1.545000X0*%
%TD*%
%TA.AperFunction,SMDPad,CuDef*%
%ADD12RoundRect,0.120000X-0.780000X-0.280000X0.780000X-0.280000X0.780000X0.280000X-0.780000X0.280000X0*%
%TD*%
%TA.AperFunction,HeatsinkPad*%
%ADD13R,3.800000X3.800000*%
%TD*%
%TA.AperFunction,SMDPad,CuDef*%
%ADD14R,0.900000X1.500000*%
%TD*%
%TA.AperFunction,SMDPad,CuDef*%
%ADD15R,1.500000X0.900000*%
%TD*%
%TA.AperFunction,ComponentPad*%
%ADD16O,1.700000X1.700000*%
%TD*%
%TA.AperFunction,ComponentPad*%
%ADD17R,1.700000X1.700000*%
%TD*%
%TA.AperFunction,Conductor*%
%ADD18C,0.500000*%
%TD*%
%TA.AperFunction,Conductor*%
%ADD19C,0.200000*%
%TD*%
G04 APERTURE END LIST*
D10*
%TO.P,U2,1,MISO*%
%TO.N,Net-(J3-Pin_1)*%
X161000000Y-129700000D03*
%TO.P,U2,2,MOSI*%
%TO.N,Net-(J3-Pin_2)*%
X163000000Y-129700000D03*
%TO.P,U2,3,SCK*%
%TO.N,Net-(J3-Pin_3)*%
X165000000Y-129700000D03*
D11*
%TO.P,U2,4,NSS*%
%TO.N,Net-(J3-Pin_4)*%
X167000000Y-129700000D03*
D10*
%TO.P,U2,5,GND*%
%TO.N,Net-(J3-Pin_5)*%
X169000000Y-129700000D03*
%TO.P,U2,6,GND*%
%TO.N,Net-(J3-Pin_6)*%
X171000000Y-129700000D03*
%TO.P,U2,7,GND*%
%TO.N,Net-(J3-Pin_7)*%
X173000000Y-129700000D03*
%TO.P,U2,8,ANT*%
%TO.N,Net-(J5-Pin_7)*%
X173000000Y-116150000D03*
%TO.P,U2,9,NC*%
%TO.N,Net-(J5-Pin_6)*%
X171000000Y-116150000D03*
%TO.P,U2,10,NC*%
%TO.N,Net-(J5-Pin_5)*%
X168950000Y-116150000D03*
%TO.P,U2,11,VCC*%
%TO.N,Net-(J5-Pin_4)*%
X167000000Y-116150000D03*
%TO.P,U2,12,DIO1*%
%TO.N,Net-(J5-Pin_3)*%
X165000000Y-116150000D03*
%TO.P,U2,13,BUSY*%
%TO.N,Net-(J5-Pin_2)*%
X163000000Y-116150000D03*
%TO.P,U2,14,NRESET*%
%TO.N,Net-(J5-Pin_1)*%
X161000000Y-116150000D03*
%TD*%
D12*
%TO.P,U3,1,NC*%
%TO.N,Net-(J7-Pin_12)*%
X254600000Y-130800000D03*
%TO.P,U3,2,Reserved*%
%TO.N,Net-(J7-Pin_11)*%
X254600000Y-129700000D03*
%TO.P,U3,3,1PPS*%
%TO.N,Net-(J7-Pin_10)*%
X254600000Y-128600000D03*
%TO.P,U3,4,Reserved*%
%TO.N,Net-(J7-Pin_9)*%
X254600000Y-127500000D03*
%TO.P,U3,5,NC*%
%TO.N,Net-(J7-Pin_8)*%
X254600000Y-126400000D03*
%TO.P,U3,6,NC*%
%TO.N,Net-(J7-Pin_7)*%
X254600000Y-125300000D03*
%TO.P,U3,7,NC*%
%TO.N,Net-(J7-Pin_6)*%
X254600000Y-124200000D03*
%TO.P,U3,8,nRESET*%
%TO.N,Net-(J7-Pin_5)*%
X254600000Y-121200000D03*
%TO.P,U3,9,VCC_RF*%
%TO.N,Net-(J7-Pin_4)*%
X254600000Y-120100000D03*
%TO.P,U3,10,GND*%
%TO.N,Net-(J7-Pin_3)*%
X254600000Y-119000000D03*
%TO.P,U3,11,RF_IN*%
%TO.N,Net-(J7-Pin_2)*%
X254600000Y-117900000D03*
%TO.P,U3,12,GND*%
%TO.N,Net-(J7-Pin_1)*%
X254600000Y-116800000D03*
%TO.P,U3,13,GND*%
%TO.N,Net-(J6-Pin_1)*%
X242500000Y-116800000D03*
%TO.P,U3,14,NC*%
%TO.N,Net-(J6-Pin_2)*%
X242500000Y-117900000D03*
%TO.P,U3,15,NC*%
%TO.N,Net-(J6-Pin_3)*%
X242500000Y-119000000D03*
%TO.P,U3,16,TXD2*%
%TO.N,Net-(J6-Pin_4)*%
X242500000Y-120100000D03*
%TO.P,U3,17,RXD2*%
%TO.N,Net-(J6-Pin_5)*%
X242500000Y-121200000D03*
%TO.P,U3,18,SDA*%
%TO.N,Net-(J6-Pin_6)*%
X242500000Y-124200000D03*
%TO.P,U3,19,SCL*%
%TO.N,Net-(J6-Pin_7)*%
X242500000Y-125300000D03*
%TO.P,U3,20,TXD1*%
%TO.N,Net-(J6-Pin_8)*%
X242500000Y-126400000D03*
%TO.P,U3,21,RXD1*%
%TO.N,Net-(J6-Pin_9)*%
X242500000Y-127500000D03*
%TO.P,U3,22,VBAT*%
%TO.N,Net-(J6-Pin_10)*%
X242500000Y-128600000D03*
%TO.P,U3,23,VCC*%
%TO.N,Net-(J6-Pin_11)*%
X242500000Y-129700000D03*
%TO.P,U3,24,GND*%
%TO.N,Net-(J6-Pin_12)*%
X242500000Y-130800000D03*
%TD*%
D13*
%TO.P,U1,39,GND*%
%TO.N,Net-(J1-Pin_1)*%
X202070000Y-125250000D03*
D14*
%TO.P,U1,38,GND*%
X194730000Y-115000000D03*
%TO.P,U1,37,IO23*%
%TO.N,Net-(J1-Pin_2)*%
X196000000Y-115000000D03*
%TO.P,U1,36,IO22*%
%TO.N,Net-(J1-Pin_3)*%
X197270000Y-115000000D03*
%TO.P,U1,35,TXD0/IO1*%
%TO.N,Net-(J1-Pin_4)*%
X198540000Y-115000000D03*
%TO.P,U1,34,RXD0/IO3*%
%TO.N,Net-(J1-Pin_5)*%
X199810000Y-115000000D03*
%TO.P,U1,33,IO21*%
%TO.N,Net-(J1-Pin_6)*%
X201080000Y-115000000D03*
%TO.P,U1,32,NC*%
%TO.N,unconnected-(U1-NC-Pad32)*%
X202350000Y-115000000D03*
%TO.P,U1,31,IO19*%
%TO.N,Net-(J1-Pin_8)*%
X203620000Y-115000000D03*
%TO.P,U1,30,IO18*%
%TO.N,Net-(J1-Pin_9)*%
X204890000Y-115000000D03*
%TO.P,U1,29,IO5*%
%TO.N,Net-(J1-Pin_10)*%
X206160000Y-115000000D03*
%TO.P,U1,28,IO17*%
%TO.N,Net-(J1-Pin_11)*%
X207430000Y-115000000D03*
%TO.P,U1,27,IO16*%
%TO.N,Net-(J1-Pin_12)*%
X208700000Y-115000000D03*
%TO.P,U1,26,IO4*%
%TO.N,Net-(J1-Pin_13)*%
X209970000Y-115000000D03*
%TO.P,U1,25,IO0*%
%TO.N,Net-(J1-Pin_14)*%
X211240000Y-115000000D03*
D15*
%TO.P,U1,24,IO2*%
%TO.N,Net-(J2-Pin_10)*%
X212490000Y-118035000D03*
%TO.P,U1,23,IO15*%
%TO.N,Net-(J2-Pin_9)*%
X212490000Y-119305000D03*
%TO.P,U1,22,NC*%
%TO.N,unconnected-(U1-NC-Pad22)*%
X212490000Y-120575000D03*
%TO.P,U1,21,NC*%
%TO.N,unconnected-(U1-NC-Pad21)*%
X212490000Y-121845000D03*
%TO.P,U1,20,NC*%
%TO.N,unconnected-(U1-NC-Pad20)*%
X212490000Y-123115000D03*
%TO.P,U1,19,NC*%
%TO.N,unconnected-(U1-NC-Pad19)*%
X212490000Y-124385000D03*
%TO.P,U1,18,NC*%
%TO.N,unconnected-(U1-NC-Pad18)*%
X212490000Y-125655000D03*
%TO.P,U1,17,NC*%
%TO.N,unconnected-(U1-NC-Pad17)*%
X212490000Y-126925000D03*
%TO.P,U1,16,IO13*%
%TO.N,Net-(J2-Pin_2)*%
X212490000Y-128195000D03*
%TO.P,U1,15,GND*%
%TO.N,Net-(J1-Pin_1)*%
X212490000Y-129465000D03*
D14*
%TO.P,U1,14,IO12*%
%TO.N,Net-(J4-Pin_14)*%
X211240000Y-132500000D03*
%TO.P,U1,13,IO14*%
%TO.N,Net-(J4-Pin_13)*%
X209970000Y-132500000D03*
%TO.P,U1,12,IO27*%
%TO.N,Net-(J4-Pin_12)*%
X208700000Y-132500000D03*
%TO.P,U1,11,IO26*%
%TO.N,Net-(J4-Pin_11)*%
X207430000Y-132500000D03*
%TO.P,U1,10,IO25*%
%TO.N,Net-(J4-Pin_10)*%
X206160000Y-132500000D03*
%TO.P,U1,9,IO33*%
%TO.N,Net-(J4-Pin_9)*%
X204890000Y-132500000D03*
%TO.P,U1,8,IO32*%
%TO.N,Net-(J4-Pin_8)*%
X203620000Y-132500000D03*
%TO.P,U1,7,IO35*%
%TO.N,Net-(J4-Pin_7)*%
X202350000Y-132500000D03*
%TO.P,U1,6,IO34*%
%TO.N,Net-(J4-Pin_6)*%
X201080000Y-132500000D03*
%TO.P,U1,5,SENSOR_VN*%
%TO.N,Net-(J4-Pin_5)*%
X199810000Y-132500000D03*
%TO.P,U1,4,SENSOR_VP*%
%TO.N,Net-(J4-Pin_4)*%
X198540000Y-132500000D03*
%TO.P,U1,3,EN*%
%TO.N,Net-(J4-Pin_3)*%
X197270000Y-132500000D03*
%TO.P,U1,2,VDD*%
%TO.N,Net-(J4-Pin_2)*%
X196000000Y-132500000D03*
%TO.P,U1,1,GND*%
%TO.N,Net-(J1-Pin_1)*%
X194730000Y-132500000D03*
%TD*%
D16*
%TO.P,J6,12,Pin_12*%
%TO.N,Net-(J6-Pin_12)*%
X236500000Y-136840000D03*
%TO.P,J6,11,Pin_11*%
%TO.N,Net-(J6-Pin_11)*%
X236500000Y-134300000D03*
%TO.P,J6,10,Pin_10*%
%TO.N,Net-(J6-Pin_10)*%
X236500000Y-131760000D03*
%TO.P,J6,9,Pin_9*%
%TO.N,Net-(J6-Pin_9)*%
X236500000Y-129220000D03*
%TO.P,J6,8,Pin_8*%
%TO.N,Net-(J6-Pin_8)*%
X236500000Y-126680000D03*
%TO.P,J6,7,Pin_7*%
%TO.N,Net-(J6-Pin_7)*%
X236500000Y-124140000D03*
%TO.P,J6,6,Pin_6*%
%TO.N,Net-(J6-Pin_6)*%
X236500000Y-121600000D03*
%TO.P,J6,5,Pin_5*%
%TO.N,Net-(J6-Pin_5)*%
X236500000Y-119060000D03*
%TO.P,J6,4,Pin_4*%
%TO.N,Net-(J6-Pin_4)*%
X236500000Y-116520000D03*
%TO.P,J6,3,Pin_3*%
%TO.N,Net-(J6-Pin_3)*%
X236500000Y-113980000D03*
%TO.P,J6,2,Pin_2*%
%TO.N,Net-(J6-Pin_2)*%
X236500000Y-111440000D03*
D17*
%TO.P,J6,1,Pin_1*%
%TO.N,Net-(J6-Pin_1)*%
X236500000Y-108900000D03*
%TD*%
D16*
%TO.P,J7,12,Pin_12*%
%TO.N,Net-(J7-Pin_12)*%
X260000000Y-136840000D03*
%TO.P,J7,11,Pin_11*%
%TO.N,Net-(J7-Pin_11)*%
X260000000Y-134300000D03*
%TO.P,J7,10,Pin_10*%
%TO.N,Net-(J7-Pin_10)*%
X260000000Y-131760000D03*
%TO.P,J7,9,Pin_9*%
%TO.N,Net-(J7-Pin_9)*%
X260000000Y-129220000D03*
%TO.P,J7,8,Pin_8*%
%TO.N,Net-(J7-Pin_8)*%
X260000000Y-126680000D03*
%TO.P,J7,7,Pin_7*%
%TO.N,Net-(J7-Pin_7)*%
X260000000Y-124140000D03*
%TO.P,J7,6,Pin_6*%
%TO.N,Net-(J7-Pin_6)*%
X260000000Y-121600000D03*
%TO.P,J7,5,Pin_5*%
%TO.N,Net-(J7-Pin_5)*%
X260000000Y-119060000D03*
%TO.P,J7,4,Pin_4*%
%TO.N,Net-(J7-Pin_4)*%
X260000000Y-116520000D03*
%TO.P,J7,3,Pin_3*%
%TO.N,Net-(J7-Pin_3)*%
X260000000Y-113980000D03*
%TO.P,J7,2,Pin_2*%
%TO.N,Net-(J7-Pin_2)*%
X260000000Y-111440000D03*
D17*
%TO.P,J7,1,Pin_1*%
%TO.N,Net-(J7-Pin_1)*%
X260000000Y-108900000D03*
%TD*%
D16*
%TO.P,J3,7,Pin_7*%
%TO.N,Net-(J3-Pin_7)*%
X174690000Y-138725000D03*
%TO.P,J3,6,Pin_6*%
%TO.N,Net-(J3-Pin_6)*%
X172150000Y-138725000D03*
%TO.P,J3,5,Pin_5*%
%TO.N,Net-(J3-Pin_5)*%
X169610000Y-138725000D03*
%TO.P,J3,4,Pin_4*%
%TO.N,Net-(J3-Pin_4)*%
X167070000Y-138725000D03*
%TO.P,J3,3,Pin_3*%
%TO.N,Net-(J3-Pin_3)*%
X164530000Y-138725000D03*
%TO.P,J3,2,Pin_2*%
%TO.N,Net-(J3-Pin_2)*%
X161990000Y-138725000D03*
D17*
%TO.P,J3,1,Pin_1*%
%TO.N,Net-(J3-Pin_1)*%
X159450000Y-138725000D03*
%TD*%
%TO.P,J5,1,Pin_1*%
%TO.N,Net-(J5-Pin_1)*%
X159325000Y-107225000D03*
D16*
%TO.P,J5,2,Pin_2*%
%TO.N,Net-(J5-Pin_2)*%
X161865000Y-107225000D03*
%TO.P,J5,3,Pin_3*%
%TO.N,Net-(J5-Pin_3)*%
X164405000Y-107225000D03*
%TO.P,J5,4,Pin_4*%
%TO.N,Net-(J5-Pin_4)*%
X166945000Y-107225000D03*
%TO.P,J5,5,Pin_5*%
%TO.N,Net-(J5-Pin_5)*%
X169485000Y-107225000D03*
%TO.P,J5,6,Pin_6*%
%TO.N,Net-(J5-Pin_6)*%
X172025000Y-107225000D03*
%TO.P,J5,7,Pin_7*%
%TO.N,Net-(J5-Pin_7)*%
X174565000Y-107225000D03*
%TD*%
D17*
%TO.P,J4,1,Pin_1*%
%TO.N,Net-(J1-Pin_1)*%
X189122500Y-143942500D03*
D16*
%TO.P,J4,2,Pin_2*%
%TO.N,Net-(J4-Pin_2)*%
X191662500Y-143942500D03*
%TO.P,J4,3,Pin_3*%
%TO.N,Net-(J4-Pin_3)*%
X194202500Y-143942500D03*
%TO.P,J4,4,Pin_4*%
%TO.N,Net-(J4-Pin_4)*%
X196742500Y-143942500D03*
%TO.P,J4,5,Pin_5*%
%TO.N,Net-(J4-Pin_5)*%
X199282500Y-143942500D03*
%TO.P,J4,6,Pin_6*%
%TO.N,Net-(J4-Pin_6)*%
X201822500Y-143942500D03*
%TO.P,J4,7,Pin_7*%
%TO.N,Net-(J4-Pin_7)*%
X204362500Y-143942500D03*
%TO.P,J4,8,Pin_8*%
%TO.N,Net-(J4-Pin_8)*%
X206902500Y-143942500D03*
%TO.P,J4,9,Pin_9*%
%TO.N,Net-(J4-Pin_9)*%
X209442500Y-143942500D03*
%TO.P,J4,10,Pin_10*%
%TO.N,Net-(J4-Pin_10)*%
X211982500Y-143942500D03*
%TO.P,J4,11,Pin_11*%
%TO.N,Net-(J4-Pin_11)*%
X214522500Y-143942500D03*
%TO.P,J4,12,Pin_12*%
%TO.N,Net-(J4-Pin_12)*%
X217062500Y-143942500D03*
%TO.P,J4,13,Pin_13*%
%TO.N,Net-(J4-Pin_13)*%
X219602500Y-143942500D03*
%TO.P,J4,14,Pin_14*%
%TO.N,Net-(J4-Pin_14)*%
X222142500Y-143942500D03*
%TD*%
D17*
%TO.P,J2,1,Pin_1*%
%TO.N,Net-(J1-Pin_1)*%
X221862500Y-135102500D03*
D16*
%TO.P,J2,2,Pin_2*%
%TO.N,Net-(J2-Pin_2)*%
X221862500Y-132562500D03*
%TO.P,J2,3,Pin_3*%
%TO.N,unconnected-(J2-Pin_3-Pad3)*%
X221862500Y-130022500D03*
%TO.P,J2,4,Pin_4*%
%TO.N,unconnected-(J2-Pin_4-Pad4)*%
X221862500Y-127482500D03*
%TO.P,J2,5,Pin_5*%
%TO.N,unconnected-(J2-Pin_5-Pad5)*%
X221862500Y-124942500D03*
%TO.P,J2,6,Pin_6*%
%TO.N,unconnected-(J2-Pin_6-Pad6)*%
X221862500Y-122402500D03*
%TO.P,J2,7,Pin_7*%
%TO.N,unconnected-(J2-Pin_7-Pad7)*%
X221862500Y-119862500D03*
%TO.P,J2,8,Pin_8*%
%TO.N,unconnected-(J2-Pin_8-Pad8)*%
X221862500Y-117322500D03*
%TO.P,J2,9,Pin_9*%
%TO.N,Net-(J2-Pin_9)*%
X221862500Y-114782500D03*
%TO.P,J2,10,Pin_10*%
%TO.N,Net-(J2-Pin_10)*%
X221862500Y-112242500D03*
%TD*%
D17*
%TO.P,J1,1,Pin_1*%
%TO.N,Net-(J1-Pin_1)*%
X189042500Y-103942500D03*
D16*
%TO.P,J1,2,Pin_2*%
%TO.N,Net-(J1-Pin_2)*%
X191582500Y-103942500D03*
%TO.P,J1,3,Pin_3*%
%TO.N,Net-(J1-Pin_3)*%
X194122500Y-103942500D03*
%TO.P,J1,4,Pin_4*%
%TO.N,Net-(J1-Pin_4)*%
X196662500Y-103942500D03*
%TO.P,J1,5,Pin_5*%
%TO.N,Net-(J1-Pin_5)*%
X199202500Y-103942500D03*
%TO.P,J1,6,Pin_6*%
%TO.N,Net-(J1-Pin_6)*%
X201742500Y-103942500D03*
%TO.P,J1,7,Pin_7*%
%TO.N,unconnected-(J1-Pin_7-Pad7)*%
X204282500Y-103942500D03*
%TO.P,J1,8,Pin_8*%
%TO.N,Net-(J1-Pin_8)*%
X206822500Y-103942500D03*
%TO.P,J1,9,Pin_9*%
%TO.N,Net-(J1-Pin_9)*%
X209362500Y-103942500D03*
%TO.P,J1,10,Pin_10*%
%TO.N,Net-(J1-Pin_10)*%
X211902500Y-103942500D03*
%TO.P,J1,11,Pin_11*%
%TO.N,Net-(J1-Pin_11)*%
X214442500Y-103942500D03*
%TO.P,J1,12,Pin_12*%
%TO.N,Net-(J1-Pin_12)*%
X216982500Y-103942500D03*
%TO.P,J1,13,Pin_13*%
%TO.N,Net-(J1-Pin_13)*%
X219522500Y-103942500D03*
%TO.P,J1,14,Pin_14*%
%TO.N,Net-(J1-Pin_14)*%
X222062500Y-103942500D03*
%TD*%
D18*
%TO.N,Net-(J7-Pin_3)*%
X255500000Y-119100000D02*
X260000000Y-114600000D01*
X254700000Y-119100000D02*
X255500000Y-119100000D01*
X254600000Y-119000000D02*
X254700000Y-119100000D01*
D19*
%TO.N,Net-(J7-Pin_2)*%
X258849000Y-114456760D02*
X258849000Y-112591000D01*
X255405760Y-117900000D02*
X258849000Y-114456760D01*
X254600000Y-117900000D02*
X255405760Y-117900000D01*
X258849000Y-112591000D02*
X260000000Y-111440000D01*
X254600000Y-118000000D02*
X254600000Y-117900000D01*
D18*
%TO.N,Net-(J7-Pin_1)*%
X254600000Y-114300000D02*
X260000000Y-108900000D01*
X254600000Y-116800000D02*
X254600000Y-114300000D01*
D19*
%TO.N,Net-(J7-Pin_12)*%
X260000000Y-136200000D02*
X260000000Y-136840000D01*
X254700000Y-130900000D02*
X260000000Y-136200000D01*
X254600000Y-130900000D02*
X254700000Y-130900000D01*
%TO.N,Net-(J7-Pin_11)*%
X255500000Y-129800000D02*
X260000000Y-134300000D01*
X254600000Y-129700000D02*
X254700000Y-129800000D01*
X254700000Y-129800000D02*
X255500000Y-129800000D01*
%TO.N,Net-(J7-Pin_10)*%
X256840000Y-128600000D02*
X260000000Y-131760000D01*
X254600000Y-128700000D02*
X254700000Y-128600000D01*
X254700000Y-128600000D02*
X256840000Y-128600000D01*
%TO.N,Net-(J7-Pin_9)*%
X258280000Y-127500000D02*
X260000000Y-129220000D01*
X254600000Y-127600000D02*
X254700000Y-127500000D01*
X254700000Y-127500000D02*
X258280000Y-127500000D01*
%TO.N,Net-(J7-Pin_8)*%
X254700000Y-126400000D02*
X259720000Y-126400000D01*
X259720000Y-126400000D02*
X260000000Y-126680000D01*
X254600000Y-126500000D02*
X254700000Y-126400000D01*
%TO.N,Net-(J7-Pin_7)*%
X254700000Y-125400000D02*
X258740000Y-125400000D01*
X258740000Y-125400000D02*
X260000000Y-124140000D01*
X254600000Y-125300000D02*
X254700000Y-125400000D01*
%TO.N,Net-(J7-Pin_6)*%
X257300000Y-124300000D02*
X260000000Y-121600000D01*
X254600000Y-124200000D02*
X254700000Y-124300000D01*
X254700000Y-124300000D02*
X257300000Y-124300000D01*
%TO.N,Net-(J5-Pin_5)*%
X168950000Y-107760000D02*
X168950000Y-116225000D01*
X169485000Y-107225000D02*
X168950000Y-107760000D01*
%TO.N,Net-(J5-Pin_3)*%
X165000000Y-107820000D02*
X165000000Y-116225000D01*
X164405000Y-107225000D02*
X165000000Y-107820000D01*
%TO.N,Net-(J3-Pin_3)*%
X165000000Y-129700000D02*
X165000000Y-129775000D01*
X164530000Y-130170000D02*
X165000000Y-129700000D01*
X164530000Y-138725000D02*
X164530000Y-130170000D01*
%TO.N,Net-(J6-Pin_3)*%
X241000000Y-119100000D02*
X236500000Y-114600000D01*
X242500000Y-119100000D02*
X241000000Y-119100000D01*
X236500000Y-114600000D02*
X236500000Y-113980000D01*
%TO.N,Net-(J6-Pin_2)*%
X237651000Y-112591000D02*
X236500000Y-111440000D01*
X237651000Y-114451000D02*
X237651000Y-112591000D01*
X241200000Y-118000000D02*
X237651000Y-114451000D01*
X242500000Y-118000000D02*
X241200000Y-118000000D01*
%TO.N,Net-(J6-Pin_4)*%
X242500000Y-120200000D02*
X240180000Y-120200000D01*
%TO.N,Net-(J6-Pin_5)*%
X238740000Y-121300000D02*
X236500000Y-119060000D01*
X242500000Y-121300000D02*
X238740000Y-121300000D01*
D18*
%TO.N,Net-(J6-Pin_1)*%
X242500000Y-116900000D02*
X242500000Y-114900000D01*
X242500000Y-114900000D02*
X236500000Y-108900000D01*
D19*
%TO.N,Net-(J6-Pin_4)*%
X240180000Y-120200000D02*
X236500000Y-116520000D01*
%TO.N,Net-(J7-Pin_4)*%
X254600000Y-120200000D02*
X256320000Y-120200000D01*
%TO.N,Net-(J7-Pin_3)*%
X260000000Y-114600000D02*
X260000000Y-113980000D01*
%TO.N,Net-(J7-Pin_4)*%
X256320000Y-120200000D02*
X260000000Y-116520000D01*
%TO.N,Net-(J7-Pin_5)*%
X257760000Y-121300000D02*
X260000000Y-119060000D01*
D18*
%TO.N,Net-(J6-Pin_11)*%
X241000000Y-129800000D02*
X236500000Y-134300000D01*
D19*
%TO.N,Net-(J6-Pin_10)*%
X242500000Y-128700000D02*
X239560000Y-128700000D01*
X239560000Y-128700000D02*
X236500000Y-131760000D01*
D18*
%TO.N,Net-(J6-Pin_11)*%
X242500000Y-129800000D02*
X241000000Y-129800000D01*
%TO.N,Net-(J6-Pin_12)*%
X242500000Y-130900000D02*
X236560000Y-136840000D01*
D19*
X236560000Y-136840000D02*
X236500000Y-136840000D01*
%TO.N,Net-(J7-Pin_5)*%
X254600000Y-121300000D02*
X257760000Y-121300000D01*
%TO.N,Net-(J6-Pin_6)*%
X242500000Y-124300000D02*
X239200000Y-124300000D01*
%TO.N,Net-(J6-Pin_8)*%
X236680000Y-126500000D02*
X236500000Y-126680000D01*
%TO.N,Net-(J6-Pin_6)*%
X239200000Y-124300000D02*
X236500000Y-121600000D01*
%TO.N,Net-(J6-Pin_7)*%
X237760000Y-125400000D02*
X236500000Y-124140000D01*
%TO.N,Net-(J6-Pin_8)*%
X242500000Y-126500000D02*
X236680000Y-126500000D01*
%TO.N,Net-(J6-Pin_7)*%
X242500000Y-125400000D02*
X237760000Y-125400000D01*
%TO.N,Net-(J6-Pin_9)*%
X238120000Y-127600000D02*
X236500000Y-129220000D01*
X242500000Y-127600000D02*
X238120000Y-127600000D01*
%TO.N,Net-(J5-Pin_7)*%
X173000000Y-108790000D02*
X173000000Y-116225000D01*
X174565000Y-107225000D02*
X173000000Y-108790000D01*
%TO.N,Net-(J5-Pin_6)*%
X171000000Y-108250000D02*
X171000000Y-116225000D01*
X172025000Y-107225000D02*
X171000000Y-108250000D01*
%TO.N,Net-(J5-Pin_1)*%
X159325000Y-114550000D02*
X161000000Y-116225000D01*
X159325000Y-107225000D02*
X159325000Y-114550000D01*
%TO.N,Net-(J5-Pin_2)*%
X163000000Y-108360000D02*
X163000000Y-116225000D01*
X161865000Y-107225000D02*
X163000000Y-108360000D01*
%TO.N,Net-(J5-Pin_4)*%
X166945000Y-116170000D02*
X167000000Y-116225000D01*
D18*
X166945000Y-107225000D02*
X166945000Y-116170000D01*
%TO.N,Net-(J3-Pin_7)*%
X173000000Y-137035000D02*
X173000000Y-129775000D01*
X174690000Y-138725000D02*
X173000000Y-137035000D01*
%TO.N,Net-(J3-Pin_6)*%
X171000000Y-137575000D02*
X171000000Y-129775000D01*
X172150000Y-138725000D02*
X171000000Y-137575000D01*
%TO.N,Net-(J3-Pin_5)*%
X169610000Y-130385000D02*
X169000000Y-129775000D01*
X169610000Y-138725000D02*
X169610000Y-130385000D01*
D19*
%TO.N,Net-(J3-Pin_1)*%
X159450000Y-138725000D02*
X159450000Y-131325000D01*
X159450000Y-131325000D02*
X161000000Y-129775000D01*
%TO.N,Net-(J3-Pin_2)*%
X163000000Y-137715000D02*
X163000000Y-129775000D01*
X161990000Y-138725000D02*
X163000000Y-137715000D01*
%TO.N,Net-(J3-Pin_4)*%
X167070000Y-129845000D02*
X167000000Y-129775000D01*
X167070000Y-138725000D02*
X167070000Y-129845000D01*
%TO.N,Net-(J1-Pin_14)*%
X211362500Y-114642500D02*
X222062500Y-103942500D01*
X211362500Y-114942500D02*
X211362500Y-114642500D01*
%TO.N,Net-(J1-Pin_13)*%
X210092500Y-113372500D02*
X219522500Y-103942500D01*
X210092500Y-114942500D02*
X210092500Y-113372500D01*
%TO.N,Net-(J1-Pin_12)*%
X208822500Y-112102500D02*
X216982500Y-103942500D01*
X208822500Y-114942500D02*
X208822500Y-112102500D01*
%TO.N,Net-(J1-Pin_11)*%
X207552500Y-110832500D02*
X214442500Y-103942500D01*
X207552500Y-114942500D02*
X207552500Y-110832500D01*
%TO.N,Net-(J1-Pin_10)*%
X206282500Y-109562500D02*
X211902500Y-103942500D01*
X206282500Y-114942500D02*
X206282500Y-109562500D01*
%TO.N,Net-(J1-Pin_9)*%
X205012500Y-114942500D02*
X205012500Y-108292500D01*
X205012500Y-108292500D02*
X209362500Y-103942500D01*
%TO.N,Net-(J1-Pin_8)*%
X203742500Y-107022500D02*
X206822500Y-103942500D01*
X203742500Y-114942500D02*
X203742500Y-107022500D01*
D18*
%TO.N,Net-(J1-Pin_1)*%
X194852500Y-114942500D02*
X194852500Y-109752500D01*
X194852500Y-109752500D02*
X189042500Y-103942500D01*
D19*
%TO.N,Net-(J1-Pin_2)*%
X196122500Y-108482500D02*
X191582500Y-103942500D01*
X196122500Y-114942500D02*
X196122500Y-108482500D01*
%TO.N,Net-(J1-Pin_3)*%
X197392500Y-107212500D02*
X194122500Y-103942500D01*
X197392500Y-114942500D02*
X197392500Y-107212500D01*
%TO.N,Net-(J1-Pin_4)*%
X198662500Y-105942500D02*
X196662500Y-103942500D01*
X198662500Y-114942500D02*
X198662500Y-105942500D01*
%TO.N,Net-(J1-Pin_5)*%
X199932500Y-104672500D02*
X199202500Y-103942500D01*
X199932500Y-114942500D02*
X199932500Y-104672500D01*
%TO.N,Net-(J1-Pin_6)*%
X201202500Y-104482500D02*
X201742500Y-103942500D01*
X201202500Y-114942500D02*
X201202500Y-104482500D01*
%TO.N,Net-(J1-Pin_1)*%
X194852500Y-114942500D02*
X194862500Y-114942500D01*
%TO.N,Net-(J2-Pin_9)*%
X217397500Y-119247500D02*
X212612500Y-119247500D01*
X221862500Y-114782500D02*
X217397500Y-119247500D01*
%TO.N,Net-(J2-Pin_10)*%
X216127500Y-117977500D02*
X212612500Y-117977500D01*
X221862500Y-112242500D02*
X216127500Y-117977500D01*
%TO.N,Net-(J2-Pin_2)*%
X217437500Y-128137500D02*
X212612500Y-128137500D01*
X221862500Y-132562500D02*
X217437500Y-128137500D01*
D18*
%TO.N,Net-(J1-Pin_1)*%
X221862500Y-135102500D02*
X218307500Y-135102500D01*
X218307500Y-135102500D02*
X212612500Y-129407500D01*
X206407500Y-129407500D02*
X212612500Y-129407500D01*
X203592500Y-126592500D02*
X206407500Y-129407500D01*
X200792500Y-123792500D02*
X194852500Y-117852500D01*
X194852500Y-117852500D02*
X194852500Y-114942500D01*
X199752500Y-126592500D02*
X200792500Y-126592500D01*
X194852500Y-131492500D02*
X199752500Y-126592500D01*
X194852500Y-132442500D02*
X194852500Y-131492500D01*
X194852500Y-138432500D02*
X194852500Y-132442500D01*
D19*
X194862500Y-138442500D02*
X194852500Y-138432500D01*
D18*
X189362500Y-143942500D02*
X194862500Y-138442500D01*
D19*
X189122500Y-143942500D02*
X189362500Y-143942500D01*
D18*
%TO.N,Net-(J4-Pin_2)*%
X196122500Y-139482500D02*
X196122500Y-132442500D01*
X191662500Y-143942500D02*
X196122500Y-139482500D01*
D19*
%TO.N,Net-(J4-Pin_3)*%
X197392500Y-140752500D02*
X197392500Y-132442500D01*
X194202500Y-143942500D02*
X197392500Y-140752500D01*
%TO.N,Net-(J4-Pin_4)*%
X198662500Y-142022500D02*
X198662500Y-132442500D01*
X196742500Y-143942500D02*
X198662500Y-142022500D01*
%TO.N,Net-(J4-Pin_14)*%
X211362500Y-133162500D02*
X211362500Y-132442500D01*
X222142500Y-143942500D02*
X211362500Y-133162500D01*
%TO.N,Net-(J4-Pin_13)*%
X210092500Y-134432500D02*
X210092500Y-132442500D01*
X219602500Y-143942500D02*
X210092500Y-134432500D01*
%TO.N,Net-(J4-Pin_12)*%
X208822500Y-135702500D02*
X208822500Y-132442500D01*
X217062500Y-143942500D02*
X208822500Y-135702500D01*
%TO.N,Net-(J4-Pin_11)*%
X207552500Y-136972500D02*
X207552500Y-132442500D01*
X214522500Y-143942500D02*
X207552500Y-136972500D01*
%TO.N,Net-(J4-Pin_10)*%
X206282500Y-138242500D02*
X206282500Y-132442500D01*
X211982500Y-143942500D02*
X206282500Y-138242500D01*
%TO.N,Net-(J4-Pin_9)*%
X205012500Y-139512500D02*
X205012500Y-132442500D01*
X209442500Y-143942500D02*
X205012500Y-139512500D01*
%TO.N,Net-(J4-Pin_8)*%
X203742500Y-140782500D02*
X203742500Y-132442500D01*
X206902500Y-143942500D02*
X203742500Y-140782500D01*
%TO.N,Net-(J4-Pin_7)*%
X202472500Y-142052500D02*
X202472500Y-132442500D01*
X204362500Y-143942500D02*
X202472500Y-142052500D01*
%TO.N,Net-(J4-Pin_6)*%
X201202500Y-143322500D02*
X201202500Y-132442500D01*
X201822500Y-143942500D02*
X201202500Y-143322500D01*
%TO.N,Net-(J4-Pin_5)*%
X199932500Y-143292500D02*
X199932500Y-132442500D01*
X199282500Y-143942500D02*
X199932500Y-143292500D01*
%TD*%
M02*
